# File generated by ImageToStl.com - Free Image and 3D model conversion tools

o obj1
v 113.33860779 -175.92866516 -7.28125
v 113.33860779 -188.74026489 -7.28125
v 113.33860779 -188.74026489 20.80624962
v 155.46984863 -184.059021 20.80624962
v 140.86662292 -150.59417725 -7.28125
v 176.53547668 -132.5652771 -7.28125
v 155.46984863 -184.059021 -7.28125
v 155.46984863 -170.01527405 -7.28125
v 113.33860779 -175.92866516 20.80624962
v 140.86662292 -150.59417725 20.80624962
v 176.53547668 -132.5652771 20.80624962
v 155.46984863 -170.01527405 20.80624962
v 119.9077301 -45.54338074 -7.28125
v 119.9077301 -99.79652405 -7.28125
v 119.9077301 -99.79652405 20.80624962
v 129.34843445 -102.84751129 -7.28125
v 152.31770325 -60.96682358 -7.28125
v 119.9077301 -45.54338074 20.80624962
v 129.34843445 -102.84751129 20.80624962
v 152.31770325 -45.54338074 -7.28125
v 141.42610168 -101.02867126 20.80624962
v 176.53547668 -123.20277405 20.80624962
v 152.31770325 -60.96682358 20.80624962
v 152.31770325 -45.54338074 20.80624962
v 141.42610168 -101.02867126 -7.28125
v 146.83984375 -138.75946045 20.80624962
v 146.83984375 -138.75946045 -7.28125
v 147.86643982 -120.31446838 -7.28125
v 184.72766113 -76.39027405 -7.28125
v 184.72766113 -60.96682358 -7.28125
v 147.86643982 -120.31446838 20.80624962
v 176.53547668 -123.20277405 -7.28125
v 184.72766113 -76.39027405 20.80624962
v 184.72766113 -60.96682358 20.80624962
v 168.29153442 -157.09901428 -7.28125
v 168.29153442 -157.09901428 20.80624962
v 183.55735779 -146.60902405 -7.28125
v 183.55735779 -146.60902405 20.80624962
v 192.91986084 -132.5652771 -7.28125
v 192.91986084 -141.92776489 -7.28125
v 192.91986084 -141.92776489 20.80624962
v 192.91986084 -132.5652771 20.80624962
v 192.91986084 -123.20277405 20.80624962
v 192.91986084 -123.20277405 -7.28125
v 192.91986084 -76.39027405 -7.28125
v 192.91986084 -76.39027405 20.80624962
vn -1 0 0
vn 0.11043 -0.99388 0
vn 0 0 -1
vn 0 0 1
vn -0.67718 0.73581 0
vn -0.30751 -0.95154 -0
vn 0 1 0
vn 0.14892 -0.98885 0
vn -0.89274 0.45058 0
vn -0.94851 -0.31675 -0
vn -0.99845 0.05557 0
vn 1 0 0
vn 0.7097 -0.7045 0
vn 0.56634 -0.82417 0
vn -0 -1 0
vn 0.44721 -0.89443 0
f 1//1 2//1 3//1
f 4//2 3//2 2//2
f 2//3 1//3 5//3
f 5//3 6//3 2//3
f 2//2 7//2 4//2
f 8//3 7//3 2//3
f 8//3 2//3 6//3
f 3//1 9//1 1//1
f 10//4 9//4 3//4
f 3//4 11//4 10//4
f 3//4 4//4 12//4
f 11//4 3//4 12//4
f 1//5 9//5 10//5
f 10//5 5//5 1//5
f 13//1 14//1 15//1
f 15//6 14//6 16//6
f 17//3 14//3 13//3
f 16//3 14//3 17//3
f 15//1 18//1 13//1
f 18//4 15//4 19//4
f 16//6 19//6 15//6
f 20//7 13//7 18//7
f 13//3 20//3 17//3
f 19//4 21//4 18//4
f 22//4 18//4 21//4
f 23//4 24//4 18//4
f 18//4 22//4 23//4
f 18//7 24//7 20//7
f 21//8 19//8 16//8
f 16//8 25//8 21//8
f 25//3 16//3 17//3
f 5//9 10//9 26//9
f 26//9 27//9 5//9
f 5//3 27//3 6//3
f 11//4 26//4 10//4
f 21//10 25//10 28//10
f 29//3 28//3 25//3
f 17//3 30//3 25//3
f 25//3 30//3 29//3
f 28//10 31//10 21//10
f 21//4 31//4 22//4
f 28//11 27//11 26//11
f 6//3 27//3 28//3
f 26//11 31//11 28//11
f 31//4 26//4 11//4
f 28//3 32//3 6//3
f 32//3 28//3 29//3
f 11//4 22//4 31//4
f 24//12 23//12 17//12
f 30//7 17//7 23//7
f 17//12 20//12 24//12
f 23//4 22//4 33//4
f 33//4 34//4 23//4
f 23//7 34//7 30//7
f 12//12 4//12 7//12
f 7//12 8//12 12//12
f 12//13 8//13 35//13
f 6//3 35//3 8//3
f 35//13 36//13 12//13
f 12//4 36//4 11//4
f 36//14 35//14 37//14
f 37//3 35//3 6//3
f 11//4 36//4 38//4
f 37//14 38//14 36//14
f 22//12 11//12 6//12
f 39//7 6//7 11//7
f 6//12 32//12 22//12
f 40//3 37//3 6//3
f 6//3 39//3 40//3
f 11//4 38//4 41//4
f 41//4 42//4 11//4
f 11//7 42//7 39//7
f 43//15 22//15 32//15
f 44//3 32//3 29//3
f 32//15 44//15 43//15
f 33//4 22//4 43//4
f 41//16 38//16 37//16
f 37//16 40//16 41//16
f 34//12 33//12 29//12
f 45//7 29//7 33//7
f 29//12 30//12 34//12
f 29//3 45//3 44//3
f 43//4 46//4 33//4
f 33//7 46//7 45//7
f 42//12 41//12 40//12
f 40//12 39//12 42//12
f 46//12 43//12 44//12
f 44//12 45//12 46//12
# Vertices: 46, normals: 16, texture coordinates: 0, faces: 88

