# File generated by ImageToStl.com - Free Image and 3D model conversion tools

o obj1
v -200.30514526 -329.17776489 20.80624962
v -200.30514526 -329.17776489 -7.28125
v -196.07579041 -334.42233276 -7.28125
v -181.58013916 -329.17776489 20.80624962
v -181.58013916 -329.17776489 -7.28125
v -196.07579041 -334.42233276 20.80624962
v -190.94264221 -338.5402832 -7.28125
v -190.94264221 -338.5402832 20.80624962
v -176.89889526 -338.5402832 -7.28125
v -176.89889526 -338.5402832 20.80624962
v -150.70039368 -326.80239868 20.80624962
v -150.70039368 -326.80239868 -7.28125
v -137.40846252 -325.77993774 -7.28125
v -109.92292023 -323.66567993 -7.28125
v -96.38139343 -322.62402344 -7.28125
v -152.55639648 -311.38900757 20.80624962
v -152.55639648 -311.38900757 -7.28125
v -137.9725647 -311.38900757 20.80624962
v -137.9725647 -311.38900757 -7.28125
v -137.40846252 -325.77993774 20.80624962
v -109.92292023 -323.66567993 20.80624962
v -109.92292023 -309.62191772 20.80624962
v -109.92292023 -309.62191772 -7.28125
v -96.38139343 -322.62402344 20.80624962
v -96.38139343 -308.58026123 20.80624962
v -96.38139343 -308.58026123 -7.28125
v -59.86764526 -319.8152771 -7.28125
v -59.86764526 -319.8152771 20.80624962
v -92.63639832 -335.16976929 20.80624962
v -59.86764526 -333.85900879 -7.28125
v -59.86764526 -333.85900879 20.80624962
v -92.63639832 -335.16976929 12.38000011
v -92.63639832 -335.16976929 10.0097971
v -101.06264496 -335.16976929 20.80624962
v -100.92293549 -335.16976929 20.66654015
v -92.63639832 -335.16976929 -7.28125
v -110.42514801 -334.31430054 20.80624962
v -110.42514801 -335.16976929 20.80624962
v -110.38773346 -334.31280518 20.80624962
v -109.42264557 -334.27420044 20.80624962
v -101.06264496 -333.93981934 20.80624962
v -110.42514801 -335.88131714 20.80624962
v -92.63639832 -325.16976929 -7.28125
v -99.54023743 -325.44592285 -7.28125
v -110.42514801 -325.88131714 -7.28125
v -110.42514801 -335.16976929 -7.28125
v -95.58625031 -325.28775024 -7.28125
v -110.42514801 -335.88131714 -7.28125
v -110.42514801 -335.88131714 20.20991707
v -92.63639832 -408.121521 12.38000011
v -92.63639832 -408.121521 -7.28125
v -108.41603088 -335.16976929 -7.28125
v -110.42514801 -408.121521 -7.28125
v -110.42514801 -408.121521 20.80624962
v -101.06264496 -408.121521 20.80624962
v -110.3166275 -335.16976929 20.80624962
vn -0.77842 -0.62774 -0
vn 0 1 0
vn 0 0 -1
vn 0 0 1
vn -0.62575 -0.78002 -0
vn 0 -1 0
vn -0.0767 0.99705 0
vn -0.99283 -0.11955 -0
vn 0.99923 0.03917 -0
vn -0.0767 0.99705 0
vn -1 0 0
vn -0.0767 0.99705 0
vn 1 0 0
vn -0.0767 0.99705 0
vn 0.03997 -0.9992 0
vn 0.03997 -0.9992 0
vn 0.70711 0 0.70711
vn 0.70711 0 0.70711
vn 0.70711 -0 0.70711
f 1//1 2//1 3//1
f 2//2 1//2 4//2
f 3//3 2//3 5//3
f 4//2 5//2 2//2
f 3//1 6//1 1//1
f 4//4 1//4 6//4
f 6//5 3//5 7//5
f 7//3 3//3 5//3
f 7//5 8//5 6//5
f 4//4 6//4 8//4
f 8//6 7//6 9//6
f 5//3 9//3 7//3
f 8//4 10//4 4//4
f 9//6 10//6 8//6
f 5//7 4//7 11//7
f 9//3 5//3 12//3
f 11//7 12//7 5//7
f 11//4 4//4 10//4
f 9//3 12//3 13//3
f 13//3 14//3 9//3
f 14//3 15//3 9//3
f 16//8 17//8 12//8
f 17//2 16//2 18//2
f 12//3 17//3 19//3
f 18//2 19//2 17//2
f 12//8 11//8 16//8
f 18//4 16//4 11//4
f 19//3 13//3 12//3
f 11//4 20//4 18//4
f 19//9 18//9 20//9
f 20//9 13//9 19//9
f 13//10 20//10 21//10
f 21//10 14//10 13//10
f 14//11 21//11 22//11
f 22//11 23//11 14//11
f 15//3 14//3 23//3
f 22//4 21//4 24//4
f 23//12 22//12 25//12
f 23//3 26//3 15//3
f 25//12 26//12 23//12
f 24//4 25//4 22//4
f 24//13 15//13 26//13
f 27//14 15//14 24//14
f 26//13 25//13 24//13
f 28//4 24//4 29//4
f 24//14 28//14 27//14
f 30//15 31//15 29//15
f 29//4 31//4 28//4
f 31//13 30//13 27//13
f 27//13 28//13 31//13
f 30//15 32//15 33//15
f 30//15 29//15 32//15
f 29//6 34//6 35//6
f 35//6 32//6 29//6
f 33//15 36//15 30//15
f 21//4 20//4 37//4
f 20//4 38//4 37//4
f 21//4 39//4 40//4
f 29//4 24//4 41//4
f 24//4 40//4 41//4
f 20//4 11//4 42//4
f 41//4 34//4 29//4
f 40//4 24//4 21//4
f 37//4 39//4 21//4
f 42//4 38//4 20//4
f 10//4 42//4 11//4
f 15//3 27//3 43//3
f 27//3 36//3 43//3
f 15//3 44//3 45//3
f 45//3 9//3 15//3
f 45//3 46//3 9//3
f 44//3 15//3 47//3
f 43//3 47//3 15//3
f 27//3 30//3 36//3
f 46//3 48//3 9//3
f 10//16 48//16 49//16
f 49//16 42//16 10//16
f 10//16 9//16 48//16
f 50//13 51//13 33//13
f 48//3 52//3 51//3
f 51//3 53//3 48//3
f 48//3 46//3 52//3
f 48//11 53//11 49//11
f 49//11 53//11 54//11
f 42//4 54//4 55//4
f 36//3 51//3 52//3
f 35//17 34//17 55//17
f 35//18 50//18 32//18
f 33//13 32//13 50//13
f 33//13 51//13 36//13
f 56//4 55//4 34//4
f 53//6 51//6 50//6
f 55//6 54//6 53//6
f 53//6 50//6 55//6
f 54//11 42//11 49//11
f 56//4 38//4 42//4
f 55//4 56//4 42//4
f 55//19 50//19 35//19
f 40//4 39//4 56//4
f 40//4 56//4 34//4
f 34//4 41//4 40//4
f 56//4 37//4 38//4
f 39//4 37//4 56//4
f 36//3 44//3 47//3
f 52//3 45//3 44//3
f 44//3 36//3 52//3
f 46//3 45//3 52//3
f 47//3 43//3 36//3
# Vertices: 56, normals: 19, texture coordinates: 0, faces: 108

