# File generated by ImageToStl.com - Free Image and 3D model conversion tools

o obj1
v 41 39 0
v 41 27 0
v 41 27 0.1
v 41 39 0.1
v 44 39 0.1
v 44 39 0
v 44 27 0.1
v 44 27 0
v 70 27 0.1
v 70 27 0
v 70 12 0.1
v 70 12 0
v 64 12 0.1
v 64 12 0
v 64 0 0
v 64 0 0.1
v 61 0 0.1
v 61 0 0
v 61 12 0.1
v 61 12 0
v 44 12 0.1
v 44 12 0
v 44 0 0
v 44 0 0.1
v 41 0 0.1
v 41 0 0
v 41 12 0.1
v 41 12 0
v 36 12 0.1
v 36 12 0
v 36 27 0.1
v 36 27 0
v 61 17 0
v 61 22 0
v 64 22 0
v 40 17 0
v 40 22 0
v 64 17 0
v 68 22 0
v 68 17 0
v 64 22 0.1
v 64 17 0.1
v 61 17 0.1
v 61 22 0.1
v 40 22 0.1
v 40 17 0.1
v 68 22 0.1
v 68 17 0.1
v 65 17 6
v 65 17 0.1
v 64 17 6
v 64 16 0.1
v 64 16 6
v 65 16 0.1
v 65 16 6
v 64 22 6
v 65 22 0.1
v 65 22 6
v 65 23 0.1
v 65 23 6
v 64 23 0.1
v 64 23 6
v 40 22 6
v 41 22 0.1
v 41 22 6
v 45 22 0.1
v 44 22 0.1
v 44 22 6
v 45 22 6
v 49 22 0.1
v 48 22 0.1
v 53 22 0.1
v 52 22 0.1
v 48 22 6
v 56 22 0.1
v 49 22 6
v 57 22 0.1
v 52 22 6
v 56 22 6
v 57 22 6
v 60 22 0.1
v 60 22 6
v 61 22 6
v 53 22 6
v 57 23 6
v 57 23 0.1
v 56 23 6
v 56 23 0.1
v 49 23 6
v 49 23 0.1
v 48 23 6
v 48 23 0.1
v 61 23 6
v 61 23 0.1
v 60 23 6
v 60 23 0.1
v 53 23 6
v 53 23 0.1
v 52 23 6
v 52 23 0.1
v 45 23 6
v 45 23 0.1
v 44 23 6
v 44 23 0.1
v 41 23 6
v 41 23 0.1
v 40 23 6
v 40 23 0.1
v 61 16 0.1
v 45 16 0.1
v 44 16 0.1
v 48 16 0.1
v 41 17 0.1
v 41 16 0.1
v 40 16 0.1
v 45 17 0.1
v 48 17 0.1
v 52 16 0.1
v 49 16 0.1
v 49 17 0.1
v 52 17 0.1
v 56 16 0.1
v 53 16 0.1
v 53 17 0.1
v 56 17 0.1
v 60 16 0.1
v 57 16 0.1
v 57 17 0.1
v 60 17 0.1
v 44 17 0.1
v 48 17 6
v 48 16 6
v 49 16 6
v 49 17 6
v 52 17 6
v 52 16 6
v 53 16 6
v 53 17 6
v 56 17 6
v 56 16 6
v 57 16 6
v 57 17 6
v 60 17 6
v 60 16 6
v 61 16 6
v 61 17 6
v 41 16 6
v 41 17 6
v 40 17 6
v 40 16 6
v 45 17 6
v 44 17 6
v 44 16 6
v 45 16 6
vn -1 0 0
vn 0 1 0
vn 1 0 -0
vn 0 -1 0
vn 0 0 -1
vn 0 -0 1
f 1//1 2//1 3//1
f 3//1 4//1 1//1
f 5//2 6//2 1//2
f 1//2 4//2 5//2
f 6//3 5//3 7//3
f 7//3 8//3 6//3
f 9//2 10//2 8//2
f 8//2 7//2 9//2
f 11//3 12//3 10//3
f 10//3 9//3 11//3
f 13//4 14//4 12//4
f 12//4 11//4 13//4
f 15//3 14//3 13//3
f 13//3 16//3 15//3
f 17//4 18//4 15//4
f 15//4 16//4 17//4
f 18//1 17//1 19//1
f 19//1 20//1 18//1
f 21//4 22//4 20//4
f 20//4 19//4 21//4
f 23//3 22//3 21//3
f 21//3 24//3 23//3
f 25//4 26//4 23//4
f 23//4 24//4 25//4
f 26//1 25//1 27//1
f 27//1 28//1 26//1
f 29//4 30//4 28//4
f 28//4 27//4 29//4
f 31//1 32//1 30//1
f 30//1 29//1 31//1
f 3//2 2//2 32//2
f 32//2 31//2 3//2
f 33//5 34//5 35//5
f 26//5 28//5 22//5
f 22//5 28//5 33//5
f 36//5 33//5 28//5
f 30//5 32//5 37//5
f 35//5 38//5 33//5
f 33//5 38//5 22//5
f 37//5 36//5 30//5
f 22//5 23//5 26//5
f 18//5 20//5 14//5
f 34//5 8//5 35//5
f 10//5 39//5 35//5
f 10//5 12//5 40//5
f 20//5 22//5 38//5
f 20//5 40//5 14//5
f 35//5 8//5 10//5
f 12//5 14//5 40//5
f 6//5 8//5 2//5
f 14//5 15//5 18//5
f 40//5 39//5 10//5
f 2//5 1//5 6//5
f 37//5 32//5 2//5
f 28//5 30//5 36//5
f 2//5 34//5 37//5
f 8//5 34//5 2//5
f 38//5 40//5 20//5
f 35//3 41//3 42//3
f 42//3 38//3 35//3
f 34//1 33//1 43//1
f 43//1 44//1 34//1
f 37//3 45//3 46//3
f 46//3 36//3 37//3
f 47//1 39//1 40//1
f 40//1 48//1 47//1
f 49//2 50//2 42//2
f 40//2 38//2 50//2
f 50//2 38//2 42//2
f 42//2 51//2 49//2
f 50//2 48//2 40//2
f 51//1 42//1 52//1
f 52//1 53//1 51//1
f 53//4 52//4 54//4
f 54//4 55//4 53//4
f 55//3 54//3 50//3
f 50//3 49//3 55//3
f 55//6 49//6 51//6
f 51//6 53//6 55//6
f 56//4 41//4 57//4
f 57//4 58//4 56//4
f 39//4 47//4 57//4
f 57//4 35//4 39//4
f 41//4 35//4 57//4
f 58//3 57//3 59//3
f 59//3 60//3 58//3
f 60//2 59//2 61//2
f 61//2 62//2 60//2
f 62//1 61//1 41//1
f 41//1 56//1 62//1
f 56//6 58//6 60//6
f 60//6 62//6 56//6
f 63//4 45//4 64//4
f 64//4 65//4 63//4
f 37//4 66//4 67//4
f 67//4 64//4 37//4
f 68//4 67//4 66//4
f 66//4 69//4 68//4
f 37//4 70//4 71//4
f 37//4 72//4 73//4
f 71//4 66//4 37//4
f 74//4 71//4 70//4
f 37//4 75//4 72//4
f 70//4 76//4 74//4
f 37//4 77//4 75//4
f 73//4 70//4 37//4
f 72//4 78//4 73//4
f 45//4 37//4 64//4
f 79//4 75//4 77//4
f 77//4 80//4 79//4
f 34//4 81//4 77//4
f 82//4 81//4 44//4
f 77//4 37//4 34//4
f 81//4 34//4 44//4
f 44//4 83//4 82//4
f 72//4 84//4 78//4
f 85//3 80//3 77//3
f 77//3 86//3 85//3
f 87//2 85//2 86//2
f 86//2 88//2 87//2
f 79//1 87//1 88//1
f 88//1 75//1 79//1
f 87//6 79//6 80//6
f 80//6 85//6 87//6
f 89//3 76//3 70//3
f 70//3 90//3 89//3
f 91//2 89//2 90//2
f 90//2 92//2 91//2
f 74//1 91//1 92//1
f 92//1 71//1 74//1
f 91//6 74//6 76//6
f 76//6 89//6 91//6
f 93//3 83//3 44//3
f 44//3 94//3 93//3
f 95//2 93//2 94//2
f 94//2 96//2 95//2
f 82//1 95//1 96//1
f 96//1 81//1 82//1
f 95//6 82//6 83//6
f 83//6 93//6 95//6
f 97//3 84//3 72//3
f 72//3 98//3 97//3
f 99//2 97//2 98//2
f 98//2 100//2 99//2
f 78//1 99//1 100//1
f 100//1 73//1 78//1
f 99//6 78//6 84//6
f 84//6 97//6 99//6
f 101//3 69//3 66//3
f 66//3 102//3 101//3
f 103//2 101//2 102//2
f 102//2 104//2 103//2
f 68//1 103//1 104//1
f 104//1 67//1 68//1
f 103//6 68//6 69//6
f 69//6 101//6 103//6
f 105//3 65//3 64//3
f 64//3 106//3 105//3
f 107//2 105//2 106//2
f 106//2 108//2 107//2
f 63//1 107//1 108//1
f 108//1 45//1 63//1
f 107//6 63//6 65//6
f 65//6 105//6 107//6
f 52//6 43//6 109//6
f 52//6 44//6 43//6
f 52//6 94//6 44//6
f 13//6 11//6 54//6
f 94//6 42//6 41//6
f 54//6 52//6 13//6
f 48//6 50//6 54//6
f 47//6 9//6 59//6
f 9//6 7//6 61//6
f 94//6 52//6 42//6
f 7//6 96//6 94//6
f 54//6 11//6 48//6
f 11//6 9//6 47//6
f 61//6 59//6 9//6
f 94//6 61//6 7//6
f 21//6 110//6 111//6
f 47//6 48//6 11//6
f 41//6 61//6 94//6
f 7//6 88//6 86//6
f 21//6 112//6 110//6
f 59//6 57//6 47//6
f 86//6 96//6 7//6
f 113//6 114//6 111//6
f 111//6 114//6 21//6
f 86//6 81//6 96//6
f 88//6 7//6 98//6
f 114//6 115//6 21//6
f 116//6 110//6 112//6
f 109//6 13//6 52//6
f 7//6 100//6 98//6
f 112//6 117//6 116//6
f 21//6 118//6 119//6
f 98//6 75//6 88//6
f 100//6 7//6 90//6
f 119//6 112//6 21//6
f 120//6 119//6 118//6
f 86//6 77//6 81//6
f 7//6 92//6 90//6
f 118//6 121//6 120//6
f 21//6 122//6 123//6
f 90//6 73//6 100//6
f 102//6 71//6 92//6
f 7//6 106//6 104//6
f 123//6 118//6 21//6
f 124//6 123//6 122//6
f 98//6 72//6 75//6
f 104//6 102//6 7//6
f 31//6 29//6 46//6
f 122//6 125//6 124//6
f 21//6 126//6 127//6
f 92//6 7//6 102//6
f 3//6 31//6 108//6
f 46//6 45//6 31//6
f 127//6 122//6 21//6
f 128//6 127//6 126//6
f 19//6 109//6 126//6
f 90//6 70//6 73//6
f 67//6 104//6 106//6
f 106//6 7//6 3//6
f 4//6 3//6 7//6
f 29//6 115//6 46//6
f 115//6 29//6 27//6
f 126//6 129//6 128//6
f 126//6 21//6 19//6
f 106//6 64//6 67//6
f 7//6 5//6 4//6
f 24//6 21//6 27//6
f 27//6 21//6 115//6
f 16//6 13//6 19//6
f 19//6 13//6 109//6
f 108//6 106//6 3//6
f 45//6 108//6 31//6
f 111//6 130//6 113//6
f 27//6 25//6 24//6
f 102//6 66//6 71//6
f 19//6 17//6 16//6
f 131//1 117//1 112//1
f 112//1 132//1 131//1
f 132//4 112//4 119//4
f 119//4 133//4 132//4
f 133//3 119//3 120//3
f 120//3 134//3 133//3
f 133//6 134//6 131//6
f 131//6 132//6 133//6
f 135//1 121//1 118//1
f 118//1 136//1 135//1
f 136//4 118//4 123//4
f 123//4 137//4 136//4
f 137//3 123//3 124//3
f 124//3 138//3 137//3
f 137//6 138//6 135//6
f 135//6 136//6 137//6
f 139//1 125//1 122//1
f 122//1 140//1 139//1
f 140//4 122//4 127//4
f 127//4 141//4 140//4
f 141//3 127//3 128//3
f 128//3 142//3 141//3
f 141//6 142//6 139//6
f 139//6 140//6 141//6
f 143//1 129//1 126//1
f 126//1 144//1 143//1
f 144//4 126//4 109//4
f 109//4 145//4 144//4
f 145//3 109//3 43//3
f 43//3 146//3 145//3
f 145//6 146//6 143//6
f 143//6 144//6 145//6
f 147//3 114//3 113//3
f 113//3 148//3 147//3
f 149//1 46//1 115//1
f 115//1 150//1 149//1
f 150//4 115//4 114//4
f 114//4 147//4 150//4
f 150//6 147//6 148//6
f 148//6 149//6 150//6
f 146//2 43//2 129//2
f 129//2 143//2 146//2
f 33//2 125//2 128//2
f 128//2 129//2 33//2
f 142//2 128//2 125//2
f 125//2 139//2 142//2
f 33//2 121//2 124//2
f 33//2 117//2 120//2
f 124//2 125//2 33//2
f 138//2 124//2 121//2
f 33//2 116//2 117//2
f 121//2 135//2 138//2
f 33//2 130//2 116//2
f 120//2 121//2 33//2
f 117//2 134//2 120//2
f 43//2 33//2 129//2
f 151//2 116//2 130//2
f 130//2 152//2 151//2
f 36//2 113//2 130//2
f 148//2 113//2 46//2
f 130//2 33//2 36//2
f 113//2 36//2 46//2
f 46//2 149//2 148//2
f 117//2 131//2 134//2
f 152//1 130//1 111//1
f 111//1 153//1 152//1
f 153//4 111//4 110//4
f 110//4 154//4 153//4
f 154//3 110//3 116//3
f 116//3 151//3 154//3
f 154//6 151//6 152//6
f 152//6 153//6 154//6
# Vertices: 154, normals: 6, texture coordinates: 0, faces: 312

