# File generated by ImageToStl.com - Free Image and 3D model conversion tools

o obj1
v 57 23 6
v 57 22 6
v 57 22 0.1
v 57 23 0.1
v 56 23 6
v 56 23 0.1
v 56 22 6
v 56 22 0.1
v 40 22 6
v 40 22 0.1
v 41 22 0.1
v 41 22 6
v 40 22 0
v 45 22 0.1
v 44 22 0.1
v 44 22 6
v 45 22 6
v 49 22 0.1
v 48 22 0.1
v 53 22 0.1
v 52 22 0.1
v 48 22 6
v 49 22 6
v 52 22 6
v 61 22 0
v 60 22 0.1
v 60 22 6
v 61 22 0.1
v 61 22 6
v 53 22 6
v 49 23 6
v 49 23 0.1
v 48 23 6
v 48 23 0.1
v 61 23 6
v 61 23 0.1
v 60 23 6
v 60 23 0.1
v 61 17 0
v 61 17 0.1
v 40 17 0.1
v 40 17 0
v 53 23 6
v 53 23 0.1
v 52 23 6
v 52 23 0.1
v 45 23 6
v 45 23 0.1
v 44 23 6
v 44 23 0.1
v 41 23 6
v 41 23 0.1
v 40 23 6
v 40 23 0.1
v 61 17 6
v 60 17 0.1
v 60 17 6
v 56 17 0.1
v 57 17 0.1
v 57 17 6
v 56 17 6
v 52 17 0.1
v 53 17 0.1
v 48 17 0.1
v 49 17 0.1
v 53 17 6
v 45 17 0.1
v 52 17 6
v 44 17 0.1
v 49 17 6
v 45 17 6
v 44 17 6
v 41 17 0.1
v 41 17 6
v 40 17 6
v 48 17 6
v 48 16 0.1
v 48 16 6
v 49 16 0.1
v 49 16 6
v 52 16 0.1
v 52 16 6
v 53 16 0.1
v 53 16 6
v 56 16 0.1
v 56 16 6
v 57 16 0.1
v 57 16 6
v 60 16 0.1
v 60 16 6
v 61 16 0.1
v 61 16 6
v 41 16 6
v 41 16 0.1
v 40 16 0.1
v 40 16 6
v 44 16 0.1
v 44 16 6
v 45 16 0.1
v 45 16 6
v 44 14 0
v 41 14 0
v 36 14 0
v 36 25 0
v 64 22 0
v 61 14 0
v 41 0 0
v 64 17 0
v 44 0 0
v 44 25 0
v 70 25 0
v 68 22 0
v 70 14 0
v 68 17 0
v 61 0 0
v 64 14 0
v 44 39 0
v 41 25 0
v 41 39 0
v 64 0 0
v 64 22 0.1
v 64 17 0.1
v 68 22 0.1
v 68 17 0.1
v 41 39 0.1
v 41 25 0.1
v 36 25 0.1
v 36 14 0.1
v 41 14 0.1
v 41 0 0.1
v 44 0 0.1
v 44 14 0.1
v 61 14 0.1
v 61 0 0.1
v 64 0 0.1
v 64 14 0.1
v 70 14 0.1
v 70 25 0.1
v 44 25 0.1
v 44 39 0.1
v 65 17 6
v 65 17 0.1
v 64 17 6
v 64 16 0.1
v 64 16 6
v 65 16 0.1
v 65 16 6
v 65 23 0.1
v 65 22 0.1
v 64 23 0.1
v 64 22 6
v 65 22 6
v 65 23 6
v 64 23 6
vn 1 0 0
vn -0 1 0
vn -1 0 0
vn 0 0 1
vn 0 -1 0
vn 0 0 -1
f 1//1 2//1 3//1
f 3//1 4//1 1//1
f 5//2 1//2 4//2
f 4//2 6//2 5//2
f 7//3 5//3 6//3
f 6//3 8//3 7//3
f 5//4 7//4 2//4
f 2//4 1//4 5//4
f 9//5 10//5 11//5
f 11//5 12//5 9//5
f 13//5 14//5 15//5
f 15//5 11//5 13//5
f 16//5 15//5 14//5
f 14//5 17//5 16//5
f 13//5 18//5 19//5
f 13//5 20//5 21//5
f 19//5 14//5 13//5
f 22//5 19//5 18//5
f 13//5 8//5 20//5
f 18//5 23//5 22//5
f 13//5 3//5 8//5
f 21//5 18//5 13//5
f 20//5 24//5 21//5
f 10//5 13//5 11//5
f 7//5 8//5 3//5
f 3//5 2//5 7//5
f 25//5 26//5 3//5
f 27//5 26//5 28//5
f 3//5 13//5 25//5
f 26//5 25//5 28//5
f 28//5 29//5 27//5
f 20//5 30//5 24//5
f 31//1 23//1 18//1
f 18//1 32//1 31//1
f 33//2 31//2 32//2
f 32//2 34//2 33//2
f 22//3 33//3 34//3
f 34//3 19//3 22//3
f 33//4 22//4 23//4
f 23//4 31//4 33//4
f 35//1 29//1 28//1
f 28//1 36//1 35//1
f 37//2 35//2 36//2
f 36//2 38//2 37//2
f 27//3 37//3 38//3
f 38//3 26//3 27//3
f 37//4 27//4 29//4
f 29//4 35//4 37//4
f 25//3 39//3 40//3
f 40//3 28//3 25//3
f 13//1 10//1 41//1
f 41//1 42//1 13//1
f 43//1 30//1 20//1
f 20//1 44//1 43//1
f 45//2 43//2 44//2
f 44//2 46//2 45//2
f 24//3 45//3 46//3
f 46//3 21//3 24//3
f 45//4 24//4 30//4
f 30//4 43//4 45//4
f 47//1 17//1 14//1
f 14//1 48//1 47//1
f 49//2 47//2 48//2
f 48//2 50//2 49//2
f 16//3 49//3 50//3
f 50//3 15//3 16//3
f 49//4 16//4 17//4
f 17//4 47//4 49//4
f 51//1 12//1 11//1
f 11//1 52//1 51//1
f 53//2 51//2 52//2
f 52//2 54//2 53//2
f 9//3 53//3 54//3
f 54//3 10//3 9//3
f 53//4 9//4 12//4
f 12//4 51//4 53//4
f 55//2 40//2 56//2
f 56//2 57//2 55//2
f 39//2 58//2 59//2
f 59//2 56//2 39//2
f 60//2 59//2 58//2
f 58//2 61//2 60//2
f 39//2 62//2 63//2
f 39//2 64//2 65//2
f 63//2 58//2 39//2
f 66//2 63//2 62//2
f 39//2 67//2 64//2
f 62//2 68//2 66//2
f 39//2 69//2 67//2
f 65//2 62//2 39//2
f 64//2 70//2 65//2
f 40//2 39//2 56//2
f 71//2 67//2 69//2
f 69//2 72//2 71//2
f 42//2 73//2 69//2
f 74//2 73//2 41//2
f 69//2 39//2 42//2
f 73//2 42//2 41//2
f 41//2 75//2 74//2
f 64//2 76//2 70//2
f 76//3 64//3 77//3
f 77//3 78//3 76//3
f 78//5 77//5 79//5
f 79//5 80//5 78//5
f 80//1 79//1 65//1
f 65//1 70//1 80//1
f 80//4 70//4 76//4
f 76//4 78//4 80//4
f 68//3 62//3 81//3
f 81//3 82//3 68//3
f 82//5 81//5 83//5
f 83//5 84//5 82//5
f 84//1 83//1 63//1
f 63//1 66//1 84//1
f 84//4 66//4 68//4
f 68//4 82//4 84//4
f 61//3 58//3 85//3
f 85//3 86//3 61//3
f 86//5 85//5 87//5
f 87//5 88//5 86//5
f 88//1 87//1 59//1
f 59//1 60//1 88//1
f 88//4 60//4 61//4
f 61//4 86//4 88//4
f 57//3 56//3 89//3
f 89//3 90//3 57//3
f 90//5 89//5 91//5
f 91//5 92//5 90//5
f 92//1 91//1 40//1
f 40//1 55//1 92//1
f 92//4 55//4 57//4
f 57//4 90//4 92//4
f 93//1 94//1 73//1
f 73//1 74//1 93//1
f 75//3 41//3 95//3
f 95//3 96//3 75//3
f 96//5 95//5 94//5
f 94//5 93//5 96//5
f 96//4 93//4 74//4
f 74//4 75//4 96//4
f 72//3 69//3 97//3
f 97//3 98//3 72//3
f 98//5 97//5 99//5
f 99//5 100//5 98//5
f 100//1 99//1 67//1
f 67//1 71//1 100//1
f 100//4 71//4 72//4
f 72//4 98//4 100//4
f 42//6 101//6 102//6
f 103//6 104//6 13//6
f 39//6 25//6 105//6
f 39//6 106//6 101//6
f 13//6 42//6 103//6
f 107//6 102//6 101//6
f 105//6 108//6 39//6
f 101//6 42//6 39//6
f 101//6 109//6 107//6
f 39//6 108//6 106//6
f 25//6 110//6 105//6
f 111//6 112//6 105//6
f 105//6 110//6 111//6
f 111//6 113//6 114//6
f 115//6 106//6 116//6
f 114//6 112//6 111//6
f 116//6 108//6 114//6
f 117//6 110//6 118//6
f 106//6 108//6 116//6
f 114//6 113//6 116//6
f 118//6 119//6 117//6
f 13//6 104//6 118//6
f 102//6 103//6 42//6
f 118//6 25//6 13//6
f 110//6 25//6 118//6
f 116//6 120//6 115//6
f 105//1 121//1 122//1
f 122//1 108//1 105//1
f 123//3 112//3 114//3
f 114//3 124//3 123//3
f 125//3 119//3 118//3
f 118//3 126//3 125//3
f 126//2 118//2 104//2
f 104//2 127//2 126//2
f 127//3 104//3 103//3
f 103//3 128//3 127//3
f 128//5 103//5 102//5
f 102//5 129//5 128//5
f 129//3 102//3 107//3
f 107//3 130//3 129//3
f 130//5 107//5 109//5
f 109//5 131//5 130//5
f 131//1 109//1 101//1
f 101//1 132//1 131//1
f 132//5 101//5 106//5
f 106//5 133//5 132//5
f 133//3 106//3 115//3
f 115//3 134//3 133//3
f 134//5 115//5 120//5
f 120//5 135//5 134//5
f 135//1 120//1 116//1
f 116//1 136//1 135//1
f 136//5 116//5 113//5
f 113//5 137//5 136//5
f 137//1 113//1 111//1
f 111//1 138//1 137//1
f 138//2 111//2 110//2
f 110//2 139//2 138//2
f 139//1 110//1 117//1
f 117//1 140//1 139//1
f 140//2 117//2 119//2
f 119//2 125//2 140//2
f 141//2 142//2 122//2
f 114//2 108//2 142//2
f 142//2 108//2 122//2
f 122//2 143//2 141//2
f 142//2 124//2 114//2
f 143//3 122//3 144//3
f 144//3 145//3 143//3
f 145//5 144//5 146//5
f 146//5 147//5 145//5
f 147//1 146//1 142//1
f 142//1 141//1 147//1
f 147//4 141//4 143//4
f 143//4 145//4 147//4
f 144//4 40//4 91//4
f 144//4 28//4 40//4
f 144//4 36//4 28//4
f 136//4 137//4 146//4
f 36//4 122//4 121//4
f 132//4 99//4 97//4
f 146//4 144//4 136//4
f 146//4 137//4 124//4
f 148//4 149//4 123//4
f 138//4 139//4 150//4
f 36//4 144//4 122//4
f 139//4 38//4 36//4
f 132//4 77//4 99//4
f 124//4 142//4 146//4
f 137//4 138//4 123//4
f 150//4 148//4 138//4
f 36//4 150//4 139//4
f 97//4 129//4 132//4
f 67//4 99//4 77//4
f 123//4 124//4 137//4
f 121//4 150//4 36//4
f 139//4 6//4 4//4
f 77//4 64//4 67//4
f 132//4 81//4 79//4
f 123//4 138//4 148//4
f 4//4 38//4 139//4
f 79//4 77//4 132//4
f 65//4 79//4 81//4
f 4//4 26//4 38//4
f 139//4 46//4 44//4
f 81//4 62//4 65//4
f 132//4 85//4 83//4
f 91//4 136//4 144//4
f 44//4 6//4 139//4
f 83//4 81//4 132//4
f 63//4 83//4 85//4
f 44//4 8//4 6//4
f 46//4 139//4 32//4
f 85//4 58//4 63//4
f 132//4 89//4 87//4
f 127//4 128//4 41//4
f 4//4 3//4 26//4
f 139//4 34//4 32//4
f 87//4 85//4 132//4
f 59//4 87//4 89//4
f 133//4 91//4 89//4
f 41//4 10//4 127//4
f 32//4 21//4 46//4
f 34//4 139//4 48//4
f 139//4 52//4 50//4
f 89//4 56//4 59//4
f 89//4 132//4 133//4
f 128//4 95//4 41//4
f 44//4 20//4 8//4
f 50//4 48//4 139//4
f 135//4 136//4 133//4
f 133//4 136//4 91//4
f 10//4 54//4 127//4
f 129//4 94//4 95//4
f 48//4 19//4 34//4
f 97//4 69//4 129//4
f 131//4 132//4 129//4
f 95//4 128//4 129//4
f 69//4 73//4 94//4
f 32//4 18//4 21//4
f 15//4 50//4 52//4
f 126//4 54//4 52//4
f 125//4 126//4 139//4
f 129//4 130//4 131//4
f 94//4 129//4 69//4
f 52//4 11//4 15//4
f 139//4 140//4 125//4
f 54//4 126//4 127//4
f 52//4 139//4 126//4
f 48//4 14//4 19//4
f 133//4 134//4 135//4
f 151//5 121//5 149//5
f 149//5 152//5 151//5
f 112//5 123//5 149//5
f 149//5 105//5 112//5
f 121//5 105//5 149//5
f 152//1 149//1 148//1
f 148//1 153//1 152//1
f 153//2 148//2 150//2
f 150//2 154//2 153//2
f 154//3 150//3 121//3
f 121//3 151//3 154//3
f 151//4 152//4 153//4
f 153//4 154//4 151//4
# Vertices: 154, normals: 6, texture coordinates: 0, faces: 312

