# File generated by ImageToStl.com - Free Image and 3D model conversion tools

o obj1
v 113.33860779 -175.92866516 -7.28125
v 113.33860779 -188.74026489 -7.28125
v 113.33860779 -188.74026489 20.80624962
v 155.46984863 -184.059021 20.80624962
v 140.86662292 -150.59417725 -7.28125
v 176.53547668 -132.5652771 -7.28125
v 155.46984863 -184.059021 -7.28125
v 155.46984863 -170.01527405 -7.28125
v 113.33860779 -175.92866516 20.80624962
v 140.86662292 -150.59417725 20.80624962
v 176.53547668 -132.5652771 20.80624962
v 155.46984863 -170.01527405 20.80624962
v 119.9077301 -45.54338074 -7.28125
v 119.9077301 -99.79652405 -7.28125
v 119.9077301 -99.79652405 20.80624962
v 129.34843445 -102.84751129 -7.28125
v 152.31770325 -60.96682358 -7.28125
v 119.9077301 -45.54338074 20.80624962
v 129.34843445 -102.84751129 20.80624962
v 152.31770325 -45.54338074 -7.28125
v 141.42610168 -101.02867126 20.80624962
v 176.53547668 -123.20277405 20.80624962
v 152.31770325 -60.96682358 20.80624962
v 152.31770325 -45.54338074 20.80624962
v 141.42610168 -101.02867126 -7.28125
v 146.83984375 -138.75946045 20.80624962
v 146.83984375 -138.75946045 -7.28125
v 147.86643982 -120.31446838 -7.28125
v 184.72766113 -76.39027405 -7.28125
v 184.72766113 -60.96682358 -7.28125
v 147.86643982 -120.31446838 20.80624962
v 176.53547668 -123.20277405 -7.28125
v 184.72766113 -76.39027405 20.80624962
v 184.72766113 -60.96682358 20.80624962
v 168.29153442 -157.09901428 -7.28125
v 168.29153442 -157.09901428 20.80624962
v 183.55735779 -146.60902405 -7.28125
v 183.55735779 -146.60902405 20.80624962
v 192.91986084 -132.5652771 -7.28125
v 192.91986084 -141.92776489 -7.28125
v 192.91986084 -141.92776489 20.80624962
v 192.91986084 -132.5652771 20.80624962
v 192.91986084 -123.20277405 20.80624962
v 192.91986084 -123.20277405 -7.28125
v 192.91986084 -76.39027405 -7.28125
v 192.91986084 -76.39027405 20.80624962
v 29.07610512 129.58473206 20.80624962
v 29.07610512 129.58473206 -7.28125
v 43.11985397 124.90348053 -7.28125
v 49.98921967 209.348526 20.80624962
v 55.77169418 167.91973877 -7.28125
v 49.98921967 209.348526 -7.28125
v 43.11985397 124.90348053 20.80624962
v 55.77169418 167.91973877 20.80624962
v 58.14805222 175.99935913 20.80624962
v 47.8011055 101.49723053 -7.28125
v 47.8011055 101.49723053 20.80624962
v 66.00685883 165.21736145 20.80624962
v 69.48817444 95.30092621 -7.28125
v 66.00685883 165.21736145 -7.28125
v 84.60723114 158.05628967 -7.28125
v 84.60723114 158.05628967 20.80624962
v 69.48817444 95.30092621 20.80624962
v 66.52610779 204.48472595 20.80624962
v 58.14805222 175.99935913 -7.28125
v 66.52610779 204.48472595 -7.28125
v 68.23455811 173.01431274 20.80624962
v 68.23455811 173.01431274 -7.28125
v 75.88860321 199.80348206 20.80624962
v 75.88860321 199.80348206 -7.28125
v 93.45576477 194.7842865 -7.28125
v 93.17842865 152.64910889 -7.28125
v 86.79064178 167.11904907 -7.28125
v 93.45576477 194.7842865 20.80624962
v 86.79064178 167.11904907 20.80624962
v 95.76196289 161.69148254 20.80624962
v 93.17842865 152.64910889 20.80624962
v 85.25110626 124.90348053 -7.28125
v 85.25110626 124.90348053 20.80624962
v 96.82989502 121.59525299 -7.28125
v 96.82989502 121.59525299 20.80624962
v 95.76196289 161.69148254 -7.28125
v 103.97610474 190.440979 20.80624962
v 115.55489349 187.13275146 -7.28125
v 103.97610474 190.440979 -7.28125
v 115.55489349 187.13275146 20.80624962
v -22.4176445 -404.07775879 20.80624962
v -22.4176445 -404.07775879 -7.28125
v -17.73639488 -422.80276489 -7.28125
v 31.20615578 -388.30606079 20.80624962
v 31.20615578 -388.30606079 -7.28125
v -17.73639488 -422.80276489 20.80624962
v 65.50615692 -401.99212646 -7.28125
v 65.50615692 -401.99212646 20.80624962
v 9.71567726 -312.14703369 20.80624962
v 9.71567726 -312.14703369 -7.28125
v 9.86212063 -318.76721191 -7.28125
v 12.43756771 -306.11050415 20.80624962
v 38.84599686 -311.18878174 -7.28125
v 12.43756771 -306.11050415 -7.28125
v 9.86212063 -318.76721191 20.80624962
v 38.84599686 -311.18878174 20.80624962
v 57.16360474 -380.67150879 -7.28125
v 57.16360474 -380.67150879 20.80624962
v 17.49593163 -301.83721924 20.80624962
v 17.49593163 -301.83721924 -7.28125
v 23.90235519 -300.16210938 20.80624962
v 23.90235519 -300.16210938 -7.28125
v 30.40501404 -301.41256714 20.80624962
v 30.40501404 -301.41256714 -7.28125
v 35.73328018 -305.34420776 20.80624962
v 35.73328018 -305.34420776 -7.28125
v 18.38290215 -119.85222626 -7.28125
v 23.59485626 -114.64027405 -7.28125
v 24.3948555 -115.840271 -7.28125
v 24.3948555 -113.840271 -7.28125
v 25.27485466 -114.72026825 -7.28125
v 27.39485359 -118.840271 -7.28125
v 29.99143982 -119.4368515 -7.28125
v 29.55211449 -120.99752808 -7.28125
v 18.69594574 -121.53917694 -7.28125
v 2.63423109 -93.39239502 10.50749969
v 2.63423109 -93.39239502 -7.28125
v 3.51859117 -97.6638031 -7.28125
v 3.79735518 -87.75276947 10.50749969
v 8.85291862 -101.75563812 -7.28125
v 3.79735518 -87.75276947 -7.28125
v 44.87430954 -87.75276947 -7.28125
v 15.03235531 -101.79652405 -7.28125
v 3.51859117 -97.6638031 10.50749969
v 8.85291862 -101.75563812 10.50749969
v 44.87430954 -87.75276947 10.50749969
v 15.03235531 -101.79652405 10.50749969
v 5.53488588 -100.22363281 -7.28125
v 5.53488588 -100.22363281 10.50749969
v 34.69360352 -102.73277283 -7.28125
v 45.30754852 -92.16576385 -7.28125
v 45.30754852 -92.16576385 10.50749969
v 34.69360352 -102.73277283 10.50749969
v 41.05702209 -100.15892792 -7.28125
v 41.05702209 -100.15892792 10.50749969
v 44.14354324 -96.74878693 -7.28125
v 44.14354324 -96.74878693 10.50749969
v 24.3948555 -113.840271 10.50749969
v 23.59485626 -114.64027405 10.50749969
v 29.99143982 -119.4368515 10.50749969
v 25.27485466 -114.72026825 10.50749969
v 18.38290215 -119.85222626 10.50749969
v 18.38290215 -119.85222626 8.98750401
v 18.38290215 -119.85222626 4.79614496
v 29.99143982 -119.4368515 -5.76125002
v 29.99143982 -119.4368515 3.91191959
v 36.56610489 -139.11901855 -7.28125
v 24.3948555 -151.29026794 -7.28125
v 5.66985512 -132.5652771 -7.28125
v 5.66985512 -132.5652771 20.80624962
v 24.3948555 -113.840271 20.80624962
v 10.07688427 -131.90324402 20.80624962
v 23.45860481 -118.52152252 20.80624962
v 23.67020416 -145.49656677 20.80624962
v 24.3948555 -151.29026794 20.80624962
v 23.18924522 -134.42314148 28.29624939
v 20.66934395 -131.90324402 28.29624939
v 25.73575211 -131.39112854 28.29624939
v 23.45860481 -129.11398315 28.29624939
v 35.88729477 -130.95021057 20.80624962
v 38.43860626 -127.88401794 20.80624962
v 38.43860626 -137.246521 20.80624962
v 47.8011055 -127.88401794 20.80624962
v 38.43860626 -137.246521 -7.28125
v 47.8011055 -137.246521 -7.28125
v 38.43860626 -127.88401794 -7.28125
v 47.8011055 -137.246521 20.80624962
v 47.8011055 -127.88401794 -7.28125
v 24.3948555 -151.29026794 12.38000011
v 36.56610489 -139.11901855 12.38000011
v 36.56610489 -139.11901855 12.37999725
v 28.60798073 -147.07714844 12.38000011
v 36.56610489 -139.11901855 -3.53624749
v 4.54571724 -172.40150452 12.38000011
v 4.54571724 -172.40150452 -7.28125
v 5.17254734 -175.5289917 -7.28125
v 5.31713295 -169.04602051 12.38000011
v 5.31713295 -169.04602051 -7.28125
v 5.17254734 -175.5289917 12.38000011
v 8.49394321 -180.31402588 -7.28125
v 8.49394321 -180.31402588 12.38000011
v 8.44650364 -165.40570068 12.38000011
v 8.44650364 -165.40570068 -7.28125
v 13.35162258 -163.33731079 -7.28125
v 13.35162258 -163.33731079 12.38000011
v 16.77137566 -163.46151733 12.38000011
v 16.77137566 -163.46151733 -7.28125
v 19.71360588 -146.60902405 -7.28125
v 19.71360588 -146.60902405 12.38000011
v 36.56610489 -163.46151733 -7.28125
v 36.56610489 -163.46151733 12.38000011
v 38.87927628 -163.53433228 12.38000011
v 38.87927628 -163.53433228 -7.28125
v 45.02223587 -164.98693848 -7.28125
v 45.02223587 -164.98693848 12.38000011
v 47.54442215 -167.15498352 12.38000011
v 47.54442215 -167.15498352 -7.28125
v 48.62738419 -169.80802917 -7.28125
v 48.62738419 -169.80802917 12.38000011
v 29.2053833 -177.3777771 12.38000011
v 29.50224876 -177.3777771 12.38000011
v 30.49272537 -177.3777771 12.38000011
v 31.32141304 -177.3777771 12.38000011
v 32.42765045 -177.3777771 12.38000011
v 45.18190384 -177.3777771 12.38000011
v 10.56857681 -178.2151947 12.38000011
v 10.82499218 -178.20298767 12.38000011
v 22.80859756 -177.6321106 12.38000011
v 26.76509476 -177.44363403 12.38000011
v 28.14752388 -177.3777771 12.38000011
v 27.88200188 -177.39042664 12.38000011
v 10.35110474 -179.3777771 12.38000011
v 10.35110474 -178.22555542 12.38000011
v 47.90291214 -177.3777771 12.38000011
v 10.35110474 -180.22555542 12.38000011
v 47.90291214 -177.3777771 9.95749664
v 47.90291214 -177.3777771 -7.28125
v 27.88200188 -177.39042664 -7.28125
v 26.76509476 -177.44363403 -7.28125
v 10.82499218 -178.20298767 -7.28125
v 10.56857681 -178.2151947 -7.28125
v 10.35110474 -178.22555542 -7.28125
v 32.42765045 -177.3777771 -7.28125
v 31.32141304 -177.3777771 -7.28125
v 30.49272537 -177.3777771 -7.28125
v 29.50224876 -177.3777771 -7.28125
v 29.2053833 -177.3777771 -7.28125
v 28.14752388 -177.3777771 -7.28125
v 10.35110474 -179.3777771 -7.28125
v 10.35110474 -180.22555542 -7.28125
v 10.35110474 -180.22555542 10.18041229
v 47.8011055 -178.44152832 -7.28125
v 27.7467041 -179.3777771 -7.28125
v 11.25625229 -179.3777771 -7.28125
v 28.14752388 -179.3777771 -7.28125
v 10.35110474 -196.10276794 -7.28125
v 10.35110474 -196.10276794 20.80624962
v 10.35110474 -178.22555542 20.80624962
v 24.3948555 -196.10276794 20.80624962
v 24.3948555 -196.10276794 -7.28125
v 38.43860626 -196.10276794 20.80624962
v 28.14752388 -177.3777771 20.80624962
v 24.3948555 -219.50901794 -7.28125
v 24.3948555 -219.50901794 20.80624962
v 38.43860626 -219.50901794 -7.28125
v 38.43860626 -196.10276794 -7.28125
v 38.43860626 -219.50901794 20.80624962
v 52.48235321 -177.3777771 -7.28125
v 52.48235321 -177.3777771 20.80624962
v 52.48235321 -196.10276794 -7.28125
v 52.48235321 -196.10276794 20.80624962
v -110.42514801 -408.121521 -7.28125
v -110.42514801 -408.121521 20.80624962
v -110.42514801 -334.31430054 20.80624962
v -101.06264496 -408.121521 20.80624962
v -110.42514801 -325.88131714 -7.28125
v -92.63639832 -408.121521 -7.28125
v -92.63639832 -408.121521 12.38000011
v -110.42514801 -325.88131714 12.38000011
v -101.06264496 -333.93981934 20.80624962
v -92.63639832 -325.16976929 -7.28125
v -92.63639832 -325.16976929 12.38000011
v -124.46889496 -199.9752655 20.80624962
v -124.46889496 -199.9752655 -7.28125
v -120.72389221 -244.91526794 -7.28125
v -113.90963745 -199.09533691 20.80624962
v -110.41461182 -241.03565979 -7.28125
v -113.90963745 -199.09533691 -7.28125
v -113.05723572 -209.32414246 -7.28125
v -112.79167175 -212.51095581 -7.28125
v -110.74944305 -237.01766968 -7.28125
v -120.72389221 -244.91526794 20.80624962
v -110.41461182 -241.03565979 20.80624962
v -113.05723572 -209.32414246 20.80624962
v -112.79167175 -212.51095581 20.80624962
v -110.74944305 -237.01766968 20.80624962
v -110.1646347 -244.03533936 -7.28125
v -110.1646347 -244.03533936 20.80624962
v -105.0770874 -209.32414246 20.80624962
v -105.0770874 -209.32414246 -7.28125
v -104.6218338 -212.51095581 -7.28125
v -104.6218338 -212.51095581 20.80624962
v -101.1208725 -237.01766968 20.80624962
v -101.1208725 -237.01766968 -7.28125
v -100.546875 -241.03565979 -7.28125
v -100.546875 -241.03565979 20.80624962
v -106.68014526 -198.10276794 20.80624962
v -106.68014526 -198.10276794 -7.28125
v -87.95514679 -195.42776489 20.80624962
v -87.95514679 -195.42776489 -7.28125
v -82.79616547 -231.54064941 -7.28125
v -82.79616547 -231.54064941 20.80624962
v -82.12638092 -236.22909546 -7.28125
v -82.12638092 -236.22909546 20.80624962
v -78.59264374 -260.965271 -7.28125
v -78.59264374 -260.965271 20.80624962
v -97.31764221 -263.64025879 -7.28125
v -97.31764221 -263.64025879 20.80624962
v -75.55284119 -231.54064941 20.80624962
v -75.55284119 -231.54064941 -7.28125
v -75.12661743 -236.22909546 -7.28125
v -75.12661743 -236.22909546 20.80624962
v -78.59264374 -198.10276794 20.80624962
v -78.59264374 -198.10276794 -7.28125
v -64.54889679 -193.42152405 20.80624962
v -64.54889679 -193.42152405 -7.28125
v -55.18639374 -249.5965271 -7.28125
v -55.18639374 -249.5965271 20.80624962
v -73.91139221 -249.5965271 -7.28125
v -73.91139221 -249.5965271 20.80624962
v -200.30514526 -329.17776489 20.80624962
v -200.30514526 -329.17776489 -7.28125
v -196.07579041 -334.42233276 -7.28125
v -181.58013916 -329.17776489 20.80624962
v -181.58013916 -329.17776489 -7.28125
v -196.07579041 -334.42233276 20.80624962
v -190.94264221 -338.5402832 -7.28125
v -190.94264221 -338.5402832 20.80624962
v -176.89889526 -338.5402832 -7.28125
v -176.89889526 -338.5402832 20.80624962
v -150.70039368 -326.80239868 20.80624962
v -150.70039368 -326.80239868 -7.28125
v -110.42514801 -335.88131714 -7.28125
v -137.40846252 -325.77993774 -7.28125
v -109.92292023 -323.66567993 -7.28125
v -110.42514801 -335.16976929 -7.28125
v -96.38139343 -322.62402344 -7.28125
v -110.42514801 -335.88131714 20.80624962
v -152.55639648 -311.38900757 20.80624962
v -152.55639648 -311.38900757 -7.28125
v -137.9725647 -311.38900757 20.80624962
v -137.9725647 -311.38900757 -7.28125
v -137.40846252 -325.77993774 20.80624962
v -109.92292023 -323.66567993 20.80624962
v -110.42514801 -335.16976929 20.80624962
v -92.63639832 -335.16976929 -7.28125
v -96.38139343 -322.62402344 20.80624962
v -92.63639832 -335.16976929 20.80624962
v -109.92292023 -309.62191772 20.80624962
v -109.92292023 -309.62191772 -7.28125
v -96.38139343 -308.58026123 20.80624962
v -96.38139343 -308.58026123 -7.28125
v -59.86764526 -319.8152771 -7.28125
v -59.86764526 -319.8152771 20.80624962
v -59.86764526 -333.85900879 -7.28125
v -59.86764526 -333.85900879 20.80624962
vn -1 0 0
vn 0.11043 -0.99388 0
vn 0 0 -1
vn 0 0 1
vn -0.67718 0.73581 0
vn -0.30751 -0.95154 -0
vn 0 1 0
vn 0.14892 -0.98885 0
vn -0.89274 0.45058 0
vn -0.94851 -0.31675 -0
vn -0.99845 0.05557 0
vn 1 0 0
vn 0.7097 -0.7045 0
vn 0.56634 -0.82417 0
vn -0 -1 0
vn 0.44721 -0.89443 0
vn -0.31623 -0.94868 -0
vn -0.96731 0.25362 0
vn 0.95937 -0.28217 0
vn -0.96152 0.27472 0
vn -0.27472 -0.96152 -0
vn 0.28217 0.95937 -0
vn -0.25528 -0.96687 -0
vn 0.95937 -0.28217 0
vn 0.28378 0.95889 -0
vn -0.96152 0.27472 0
vn 0.97218 -0.23422 0
vn 0.27472 0.96152 -0
vn -0.53356 -0.84577 -0
vn -0.96152 0.27472 0
vn -0.27472 -0.96152 -0
vn 0.97218 -0.23422 0
vn 0.51763 0.8556 -0
vn 0.96152 -0.27472 0
vn 0.27472 0.96152 -0
vn -0.97014 -0.24254 -0
vn -0.28217 0.95937 0
vn 0.24254 -0.97014 0
vn -0.99976 -0.02212 -0
vn -0.91161 0.41105 0
vn -0.95598 -0.29343 -0
vn -0.64534 0.7639 0
vn -0.25297 0.96747 0
vn 0.18884 0.98201 -0
vn 0.59374 0.80466 -0
vn 0.88263 0.47007 -0
vn 0.96696 0.25492 -0
vn 0.93125 0.36439 -0
vn -0.97923 -0.20274 -0
vn -0.97939 0.20199 0
vn -0.78557 -0.61877 -0
vn -0.41919 -0.9079 -0
vn -0.00662 -0.99998 -0
vn 0.37496 -0.92704 0
vn 0.74141 -0.67105 0
vn 0.96923 -0.24617 0
vn 0.99522 0.0977 -0
vn -0.98321 -0.18245 -0
vn 0.96259 -0.27097 0
vn 0 0 0
vn -0.70711 0.70711 0
vn -0.5 -0.5 0.70711
vn -0.5 0.5 0.70711
vn -0.5 -0.5 0.70711
vn -0.5 0.5 0.70711
vn 0.54147 -0.45477 0.70711
vn 0.54147 -0.45477 0.70711
vn 0.5 0.5 0.70711
vn 0.5 0.5 0.70711
vn -0.70711 -0.70711 0
vn 0.70711 -0.70711 0
vn 0.70711 -0.70711 0
vn 0.70711 -0.70711 -0
vn 0.70711 -0.70711 0
vn -0.70711 0.70711 -0
vn -0.70711 0.70711 0
vn -0.70711 0.70711 -0
vn 0.70711 0.70711 0
vn 0.70711 0.70711 0
vn 0.70711 0.70711 0
vn 0.70711 0.70711 -0
vn -0.9805 -0.19652 -0
vn -0.97458 0.22405 0
vn -0.82149 -0.57022 -0
vn -0.75832 0.65188 0
vn -0.38855 0.92143 0
vn 0.0363 0.99934 -0
vn -0.9851 0.17199 0
vn 0.03146 0.9995 -0
vn 0.23012 0.97316 0
vn 0.65186 0.75834 -0
vn 0.92584 0.37792 0
vn 0.70711 0.70711 -0
vn 0.99545 -0.09527 0
vn 0.04758 -0.99887 0
vn -0.04758 0.99887 -0
vn -0.04759 0.99887 0
vn -0.04755 0.99887 -6E-05
vn -0.04758 0.99887 0
vn -0.04758 0.99887 0
vn -0.04759 0.99887 1E-05
vn -0.04758 0.99887 -0
vn -0.02826 0.70654 0.70711
vn -0.03997 0.9992 0
vn -0.02826 0.70654 0.70711
vn 0.70711 0 0.70711
vn -0.99655 -0.08305 -0
vn -0.08304 0.99655 0
vn 0.08304 -0.99655 0
vn 0.99655 0.08305 -0
vn 0.99655 0.08305 -0
vn 0.99655 0.08305 -0
vn -0.98995 -0.14142 -0
vn -0.14142 0.98995 0
vn -0.98995 -0.14142 -0
vn -0.98995 -0.14142 -0
vn 0.14142 -0.98995 0
vn 0.98995 0.14142 -0
vn 0.98995 0.14142 -0
vn -0.99589 -0.09054 -0
vn -0.31623 0.94868 0
vn -0.99589 -0.09054 -0
vn 0.98639 0.1644 -0
vn -0.77842 -0.62774 -0
vn -0.62575 -0.78002 -0
vn -0.0767 0.99705 0
vn 0.03997 -0.9992 0
vn -0.99283 -0.11955 -0
vn 0.99923 0.03917 -0
vn -0.0767 0.99705 0
vn -0.0767 0.99705 0
vn -0.0767 0.99705 0
vn 0.03997 -0.9992 0
f 1//1 2//1 3//1
f 4//2 3//2 2//2
f 2//3 1//3 5//3
f 5//3 6//3 2//3
f 2//2 7//2 4//2
f 8//3 7//3 2//3
f 8//3 2//3 6//3
f 3//1 9//1 1//1
f 10//4 9//4 3//4
f 3//4 11//4 10//4
f 3//4 4//4 12//4
f 11//4 3//4 12//4
f 1//5 9//5 10//5
f 10//5 5//5 1//5
f 13//1 14//1 15//1
f 15//6 14//6 16//6
f 17//3 14//3 13//3
f 16//3 14//3 17//3
f 15//1 18//1 13//1
f 18//4 15//4 19//4
f 16//6 19//6 15//6
f 20//7 13//7 18//7
f 13//3 20//3 17//3
f 19//4 21//4 18//4
f 22//4 18//4 21//4
f 23//4 24//4 18//4
f 18//4 22//4 23//4
f 18//7 24//7 20//7
f 21//8 19//8 16//8
f 16//8 25//8 21//8
f 25//3 16//3 17//3
f 5//9 10//9 26//9
f 26//9 27//9 5//9
f 5//3 27//3 6//3
f 11//4 26//4 10//4
f 21//10 25//10 28//10
f 29//3 28//3 25//3
f 17//3 30//3 25//3
f 25//3 30//3 29//3
f 28//10 31//10 21//10
f 21//4 31//4 22//4
f 28//11 27//11 26//11
f 6//3 27//3 28//3
f 26//11 31//11 28//11
f 31//4 26//4 11//4
f 28//3 32//3 6//3
f 32//3 28//3 29//3
f 11//4 22//4 31//4
f 24//12 23//12 17//12
f 30//7 17//7 23//7
f 17//12 20//12 24//12
f 23//4 22//4 33//4
f 33//4 34//4 23//4
f 23//7 34//7 30//7
f 12//12 4//12 7//12
f 7//12 8//12 12//12
f 12//13 8//13 35//13
f 6//3 35//3 8//3
f 35//13 36//13 12//13
f 12//4 36//4 11//4
f 36//14 35//14 37//14
f 37//3 35//3 6//3
f 11//4 36//4 38//4
f 37//14 38//14 36//14
f 22//12 11//12 6//12
f 39//7 6//7 11//7
f 6//12 32//12 22//12
f 40//3 37//3 6//3
f 6//3 39//3 40//3
f 11//4 38//4 41//4
f 41//4 42//4 11//4
f 11//7 42//7 39//7
f 43//15 22//15 32//15
f 44//3 32//3 29//3
f 32//15 44//15 43//15
f 33//4 22//4 43//4
f 41//16 38//16 37//16
f 37//16 40//16 41//16
f 34//12 33//12 29//12
f 45//7 29//7 33//7
f 29//12 30//12 34//12
f 29//3 45//3 44//3
f 43//4 46//4 33//4
f 33//7 46//7 45//7
f 42//12 41//12 40//12
f 40//12 39//12 42//12
f 46//12 43//12 44//12
f 44//12 45//12 46//12
f 47//17 48//17 49//17
f 48//18 47//18 50//18
f 51//3 49//3 48//3
f 50//18 52//18 48//18
f 48//3 52//3 51//3
f 49//17 53//17 47//17
f 47//4 53//4 54//4
f 50//4 47//4 55//4
f 54//4 55//4 47//4
f 53//19 49//19 51//19
f 51//19 54//19 53//19
f 56//20 57//20 58//20
f 57//21 56//21 59//21
f 58//20 60//20 56//20
f 56//3 60//3 61//3
f 61//3 59//3 56//3
f 62//4 58//4 57//4
f 59//21 63//21 57//21
f 57//4 63//4 62//4
f 52//22 50//22 64//22
f 65//3 51//3 52//3
f 52//3 66//3 65//3
f 64//22 66//22 52//22
f 55//4 64//4 50//4
f 54//23 51//23 60//23
f 60//3 51//3 65//3
f 55//4 54//4 58//4
f 60//23 58//23 54//23
f 55//24 65//24 66//24
f 65//25 55//25 67//25
f 65//3 61//3 60//3
f 67//25 68//25 65//25
f 61//3 65//3 68//3
f 58//4 67//4 55//4
f 66//24 64//24 55//24
f 62//4 67//4 58//4
f 68//26 67//26 69//26
f 69//26 70//26 68//26
f 68//3 70//3 71//3
f 68//3 72//3 61//3
f 72//3 68//3 73//3
f 71//3 73//3 68//3
f 74//4 69//4 67//4
f 75//4 67//4 62//4
f 67//4 75//4 74//4
f 63//27 59//27 61//27
f 61//27 62//27 63//27
f 70//28 69//28 74//28
f 74//28 71//28 70//28
f 62//29 61//29 72//29
f 76//4 75//4 62//4
f 72//29 77//29 62//29
f 62//4 77//4 76//4
f 78//30 79//30 77//30
f 79//31 78//31 80//31
f 77//30 72//30 78//30
f 80//3 78//3 72//3
f 77//4 79//4 81//4
f 80//31 81//31 79//31
f 75//32 73//32 71//32
f 73//33 75//33 76//33
f 73//3 82//3 72//3
f 76//33 82//33 73//33
f 71//32 74//32 75//32
f 72//3 82//3 80//3
f 81//4 76//4 77//4
f 82//30 76//30 83//30
f 84//3 80//3 82//3
f 83//30 85//30 82//30
f 82//3 85//3 84//3
f 76//4 81//4 86//4
f 86//4 83//4 76//4
f 81//34 80//34 84//34
f 84//34 86//34 81//34
f 85//35 83//35 86//35
f 86//35 84//35 85//35
f 87//36 88//36 89//36
f 88//37 87//37 90//37
f 89//3 88//3 91//3
f 90//37 91//37 88//37
f 89//36 92//36 87//36
f 90//4 87//4 92//4
f 92//38 89//38 93//38
f 91//3 93//3 89//3
f 92//4 94//4 90//4
f 93//38 94//38 92//38
f 95//39 96//39 97//39
f 96//40 95//40 98//40
f 99//3 97//3 96//3
f 98//40 100//40 96//40
f 96//3 100//3 99//3
f 97//39 101//39 95//39
f 95//4 101//4 102//4
f 98//4 95//4 102//4
f 101//41 97//41 91//41
f 103//3 91//3 97//3
f 97//3 99//3 103//3
f 91//41 90//41 101//41
f 101//4 90//4 104//4
f 104//4 102//4 101//4
f 100//42 98//42 105//42
f 105//42 106//42 100//42
f 99//3 100//3 106//3
f 105//4 98//4 102//4
f 106//43 105//43 107//43
f 107//43 108//43 106//43
f 106//3 108//3 99//3
f 102//4 107//4 105//4
f 108//44 107//44 109//44
f 109//44 110//44 108//44
f 99//3 108//3 110//3
f 109//4 107//4 102//4
f 110//45 109//45 111//45
f 111//45 112//45 110//45
f 110//3 112//3 99//3
f 102//4 111//4 109//4
f 103//3 93//3 91//3
f 90//4 94//4 104//4
f 112//46 111//46 102//46
f 102//46 99//46 112//46
f 99//47 102//47 104//47
f 104//47 103//47 99//47
f 103//48 104//48 94//48
f 94//48 93//48 103//48
f 113//3 114//3 115//3
f 114//3 116//3 117//3
f 118//3 115//3 117//3
f 119//3 120//3 118//3
f 117//3 119//3 118//3
f 117//3 115//3 114//3
f 115//3 121//3 113//3
f 122//49 123//49 124//49
f 123//50 122//50 125//50
f 124//3 123//3 126//3
f 125//50 127//50 123//50
f 123//3 127//3 128//3
f 129//3 126//3 123//3
f 123//3 128//3 129//3
f 124//49 130//49 122//49
f 131//4 122//4 130//4
f 132//4 125//4 122//4
f 122//4 131//4 133//4
f 133//4 132//4 122//4
f 130//51 124//51 134//51
f 126//3 134//3 124//3
f 134//51 135//51 130//51
f 130//4 135//4 131//4
f 128//7 127//7 125//7
f 125//7 132//7 128//7
f 135//52 134//52 126//52
f 126//52 131//52 135//52
f 131//53 126//53 129//53
f 129//53 133//53 131//53
f 136//3 129//3 137//3
f 129//3 128//3 137//3
f 138//4 133//4 139//4
f 138//4 132//4 133//4
f 139//54 136//54 140//54
f 140//3 136//3 137//3
f 140//54 141//54 139//54
f 138//4 139//4 141//4
f 141//55 140//55 142//55
f 137//3 142//3 140//3
f 142//55 143//55 141//55
f 141//4 143//4 138//4
f 143//56 142//56 137//56
f 137//56 138//56 143//56
f 128//57 132//57 138//57
f 138//57 137//57 128//57
f 139//4 133//4 144//4
f 133//4 145//4 144//4
f 146//4 139//4 147//4
f 145//4 133//4 148//4
f 144//4 147//4 139//4
f 133//58 129//58 149//58
f 129//58 113//58 150//58
f 150//58 149//58 129//58
f 149//58 148//58 133//58
f 136//59 139//59 151//59
f 139//59 146//59 152//59
f 152//59 151//59 139//59
f 151//59 119//59 136//59
f 136//3 117//3 116//3
f 116//3 129//3 136//3
f 116//3 114//3 129//3
f 117//3 136//3 119//3
f 113//3 129//3 114//3
f 153//60 154//60 153//60
f 155//61 156//61 157//61
f 156//4 158//4 159//4
f 160//4 158//4 156//4
f 159//4 157//4 156//4
f 156//4 161//4 160//4
f 162//62 163//62 158//62
f 159//63 158//63 163//63
f 158//64 160//64 162//64
f 163//4 162//4 164//4
f 163//65 165//65 159//65
f 164//4 165//4 163//4
f 162//66 160//66 166//66
f 166//67 164//67 162//67
f 166//68 159//68 165//68
f 165//69 164//69 166//69
f 167//4 157//4 159//4
f 159//4 166//4 167//4
f 160//4 161//4 168//4
f 168//4 166//4 160//4
f 169//4 166//4 168//4
f 166//4 169//4 167//4
f 168//15 170//15 171//15
f 171//3 170//3 172//3
f 171//15 173//15 168//15
f 168//4 173//4 169//4
f 172//7 167//7 169//7
f 172//3 174//3 171//3
f 169//7 174//7 172//7
f 173//12 171//12 174//12
f 174//12 169//12 173//12
f 156//70 154//70 175//70
f 156//70 155//70 154//70
f 175//70 161//70 156//70
f 168//71 176//71 177//71
f 177//71 170//71 168//71
f 168//72 161//72 178//72
f 178//73 176//73 168//73
f 178//74 161//74 175//74
f 177//71 179//71 170//71
f 153//71 170//71 179//71
f 170//60 153//60 153//60
f 153//3 155//3 170//3
f 153//3 154//3 155//3
f 155//61 148//61 149//61
f 155//75 157//75 148//75
f 157//76 144//76 145//76
f 145//77 148//77 157//77
f 113//61 155//61 150//61
f 149//61 150//61 155//61
f 172//78 151//78 152//78
f 172//78 119//78 151//78
f 167//79 146//79 147//79
f 167//78 152//78 146//78
f 147//80 144//80 167//80
f 152//78 167//78 172//78
f 144//81 157//81 167//81
f 172//3 170//3 120//3
f 170//3 118//3 120//3
f 121//3 115//3 118//3
f 170//3 155//3 121//3
f 155//3 113//3 121//3
f 118//3 170//3 121//3
f 120//3 119//3 172//3
f 180//82 181//82 182//82
f 181//83 180//83 183//83
f 183//83 184//83 181//83
f 182//82 185//82 180//82
f 185//84 182//84 186//84
f 186//84 187//84 185//84
f 184//85 183//85 188//85
f 188//85 189//85 184//85
f 190//86 189//86 188//86
f 188//86 191//86 190//86
f 190//87 191//87 192//87
f 192//87 193//87 190//87
f 194//88 193//88 192//88
f 192//88 195//88 194//88
f 196//89 197//89 198//89
f 198//89 199//89 196//89
f 200//90 199//90 198//90
f 198//90 201//90 200//90
f 200//91 201//91 202//91
f 202//91 203//91 200//91
f 204//92 203//92 202//92
f 202//92 205//92 204//92
f 197//4 176//4 178//4
f 178//4 175//4 197//4
f 175//4 195//4 192//4
f 194//93 195//93 175//93
f 175//93 154//93 194//93
f 153//3 196//3 154//3
f 193//3 194//3 154//3
f 196//12 153//12 179//12
f 197//12 196//12 177//12
f 177//12 176//12 197//12
f 179//12 177//12 196//12
f 197//4 206//4 207//4
f 198//4 207//4 208//4
f 201//4 208//4 209//4
f 202//4 209//4 210//4
f 205//4 210//4 211//4
f 191//4 212//4 213//4
f 192//4 213//4 214//4
f 175//4 192//4 215//4
f 175//4 216//4 206//4
f 175//4 217//4 216//4
f 212//4 191//4 188//4
f 188//4 218//4 219//4
f 188//4 219//4 212//4
f 183//4 180//4 218//4
f 218//4 188//4 183//4
f 206//4 197//4 175//4
f 215//4 217//4 175//4
f 214//4 215//4 192//4
f 213//4 192//4 191//4
f 211//4 220//4 205//4
f 210//4 205//4 202//4
f 209//4 202//4 201//4
f 208//4 201//4 198//4
f 207//4 198//4 197//4
f 187//4 221//4 218//4
f 218//4 185//4 187//4
f 218//4 180//4 185//4
f 205//94 220//94 222//94
f 223//94 204//94 222//94
f 222//94 204//94 205//94
f 154//3 224//3 225//3
f 190//3 193//3 226//3
f 227//3 228//3 189//3
f 189//3 190//3 227//3
f 203//3 204//3 229//3
f 200//3 203//3 230//3
f 199//3 200//3 231//3
f 196//3 199//3 232//3
f 154//3 196//3 233//3
f 233//3 234//3 154//3
f 234//3 224//3 154//3
f 232//3 233//3 196//3
f 231//3 232//3 199//3
f 230//3 231//3 200//3
f 229//3 230//3 203//3
f 229//3 204//3 223//3
f 228//3 235//3 189//3
f 226//3 227//3 190//3
f 226//3 193//3 225//3
f 225//3 193//3 154//3
f 186//3 182//3 235//3
f 184//3 189//3 235//3
f 235//3 181//3 184//3
f 182//3 181//3 235//3
f 235//3 236//3 186//3
f 186//95 236//95 237//95
f 221//95 187//95 186//95
f 237//95 221//95 186//95
f 229//3 223//3 238//3
f 224//3 234//3 239//3
f 235//3 228//3 240//3
f 240//3 228//3 227//3
f 225//3 224//3 239//3
f 225//3 239//3 240//3
f 240//3 227//3 226//3
f 240//3 226//3 225//3
f 241//3 239//3 234//3
f 234//3 233//3 241//3
f 241//3 233//3 232//3
f 241//3 232//3 231//3
f 241//3 231//3 230//3
f 241//3 230//3 229//3
f 238//3 241//3 229//3
f 242//1 243//1 244//1
f 245//15 243//15 242//15
f 242//15 246//15 245//15
f 244//4 243//4 245//4
f 245//4 247//4 244//4
f 248//4 244//4 247//4
f 249//1 250//1 245//1
f 250//15 249//15 251//15
f 245//1 246//1 249//1
f 249//3 246//3 252//3
f 252//3 251//3 249//3
f 245//4 250//4 253//4
f 251//15 253//15 250//15
f 252//3 246//3 254//3
f 253//4 247//4 245//4
f 255//4 248//4 247//4
f 253//12 251//12 252//12
f 252//12 247//12 253//12
f 247//15 252//15 256//15
f 254//3 256//3 252//3
f 256//15 257//15 247//15
f 247//4 257//4 255//4
f 257//12 256//12 254//12
f 254//12 255//12 257//12
f 248//96 217//96 215//96
f 248//97 216//97 217//97
f 255//7 207//7 206//7
f 255//7 208//7 207//7
f 255//7 209//7 208//7
f 255//7 210//7 209//7
f 255//7 211//7 210//7
f 254//7 223//7 222//7
f 222//7 255//7 254//7
f 222//7 220//7 255//7
f 248//98 213//98 212//98
f 248//99 214//99 213//99
f 219//100 244//100 248//100
f 212//101 219//101 248//101
f 220//7 211//7 255//7
f 206//7 216//7 255//7
f 216//7 248//7 255//7
f 215//102 214//102 248//102
f 242//1 244//1 221//1
f 244//1 219//1 218//1
f 218//1 221//1 244//1
f 221//1 237//1 242//1
f 236//1 242//1 237//1
f 246//3 239//3 241//3
f 241//3 238//3 246//3
f 238//3 254//3 246//3
f 246//3 242//3 236//3
f 236//3 240//3 246//3
f 239//3 246//3 240//3
f 236//3 235//3 240//3
f 238//3 223//3 254//3
f 258//1 259//1 260//1
f 261//15 259//15 258//15
f 260//1 262//1 258//1
f 263//3 258//3 262//3
f 258//15 264//15 261//15
f 258//15 263//15 264//15
f 260//4 259//4 261//4
f 260//1 265//1 262//1
f 265//103 260//103 266//103
f 261//4 266//4 260//4
f 267//104 262//104 265//104
f 262//3 267//3 263//3
f 266//105 268//105 265//105
f 265//104 268//104 267//104
f 266//106 261//106 264//106
f 264//106 268//106 266//106
f 268//12 264//12 263//12
f 263//12 267//12 268//12
f 269//107 270//107 271//107
f 270//108 269//108 272//108
f 271//3 270//3 273//3
f 272//108 274//108 270//108
f 270//3 274//3 275//3
f 275//3 276//3 270//3
f 270//3 276//3 277//3
f 277//3 273//3 270//3
f 271//107 278//107 269//107
f 279//4 269//4 278//4
f 280//4 272//4 269//4
f 269//4 281//4 280//4
f 282//4 281//4 269//4
f 269//4 279//4 282//4
f 278//109 271//109 283//109
f 273//3 283//3 271//3
f 278//4 284//4 279//4
f 283//109 284//109 278//109
f 274//110 272//110 280//110
f 280//110 275//110 274//110
f 275//7 280//7 285//7
f 276//3 275//3 286//3
f 285//7 286//7 275//7
f 285//4 280//4 281//4
f 276//111 281//111 282//111
f 281//15 276//15 287//15
f 282//111 277//111 276//111
f 286//3 287//3 276//3
f 281//4 288//4 285//4
f 287//15 288//15 281//15
f 277//7 282//7 289//7
f 273//3 277//3 290//3
f 289//7 290//7 277//7
f 289//4 282//4 279//4
f 273//112 279//112 284//112
f 279//15 273//15 291//15
f 284//112 283//112 273//112
f 290//3 291//3 273//3
f 279//4 292//4 289//4
f 291//15 292//15 279//15
f 293//113 294//113 286//113
f 294//114 293//114 295//114
f 286//3 294//3 296//3
f 295//114 296//114 294//114
f 286//113 285//113 293//113
f 295//4 293//4 285//4
f 287//3 286//3 297//3
f 296//3 297//3 286//3
f 298//4 285//4 288//4
f 285//4 298//4 295//4
f 288//115 287//115 290//115
f 290//3 287//3 299//3
f 297//3 299//3 287//3
f 290//115 289//115 288//115
f 300//4 288//4 289//4
f 288//4 300//4 298//4
f 291//3 290//3 301//3
f 299//3 301//3 290//3
f 302//4 289//4 292//4
f 289//4 302//4 300//4
f 292//116 291//116 303//116
f 301//3 303//3 291//3
f 303//116 304//116 292//116
f 292//4 304//4 302//4
f 304//117 303//117 301//117
f 301//117 302//117 304//117
f 296//118 295//118 298//118
f 298//118 297//118 296//118
f 297//7 298//7 305//7
f 299//3 297//3 306//3
f 305//7 306//7 297//7
f 305//4 298//4 300//4
f 299//119 300//119 302//119
f 300//15 299//15 307//15
f 302//119 301//119 299//119
f 306//3 307//3 299//3
f 300//4 308//4 305//4
f 307//15 308//15 300//15
f 309//120 310//120 306//120
f 310//121 309//121 311//121
f 306//3 310//3 312//3
f 311//121 312//121 310//121
f 306//120 305//120 309//120
f 311//4 309//4 305//4
f 307//3 306//3 313//3
f 312//3 313//3 306//3
f 314//4 305//4 308//4
f 305//4 314//4 311//4
f 308//122 307//122 315//122
f 313//3 315//3 307//3
f 315//122 316//122 308//122
f 308//4 316//4 314//4
f 316//15 315//15 313//15
f 313//15 314//15 316//15
f 312//123 311//123 314//123
f 314//123 313//123 312//123
f 317//124 318//124 319//124
f 318//7 317//7 320//7
f 319//3 318//3 321//3
f 320//7 321//7 318//7
f 319//124 322//124 317//124
f 320//4 317//4 322//4
f 322//125 319//125 323//125
f 323//3 319//3 321//3
f 323//125 324//125 322//125
f 320//4 322//4 324//4
f 324//15 323//15 325//15
f 321//3 325//3 323//3
f 324//4 326//4 320//4
f 325//15 326//15 324//15
f 321//126 320//126 327//126
f 325//3 321//3 328//3
f 327//126 328//126 321//126
f 327//4 320//4 326//4
f 326//127 325//127 329//127
f 325//3 328//3 330//3
f 330//3 331//3 325//3
f 332//3 329//3 325//3
f 332//3 325//3 333//3
f 331//3 333//3 325//3
f 326//4 334//4 327//4
f 329//127 334//127 326//127
f 335//128 336//128 328//128
f 336//7 335//7 337//7
f 328//3 336//3 338//3
f 337//7 338//7 336//7
f 328//128 327//128 335//128
f 337//4 335//4 327//4
f 338//3 330//3 328//3
f 327//4 339//4 337//4
f 339//4 327//4 334//4
f 338//129 337//129 339//129
f 339//129 330//129 338//129
f 330//130 339//130 340//130
f 340//130 331//130 330//130
f 334//4 341//4 339//4
f 340//4 339//4 341//4
f 334//12 329//12 332//12
f 332//12 341//12 334//12
f 341//15 332//15 342//15
f 342//3 332//3 333//3
f 341//4 343//4 340//4
f 343//4 341//4 344//4
f 342//15 344//15 341//15
f 331//1 340//1 345//1
f 345//1 346//1 331//1
f 333//3 331//3 346//3
f 345//4 340//4 343//4
f 346//131 345//131 347//131
f 346//3 348//3 333//3
f 347//131 348//131 346//131
f 343//4 347//4 345//4
f 343//12 333//12 348//12
f 349//132 333//132 343//132
f 342//3 333//3 349//3
f 348//12 347//12 343//12
f 350//4 343//4 344//4
f 343//132 350//132 349//132
f 344//133 342//133 351//133
f 349//3 351//3 342//3
f 351//133 352//133 344//133
f 344//4 352//4 350//4
f 352//12 351//12 349//12
f 349//12 350//12 352//12
# Vertices: 352, normals: 133, texture coordinates: 0, faces: 682

