# File generated by ImageToStl.com - Free Image and 3D model conversion tools

o obj1
v 18.38290215 -119.85222626 -7.28125
v 23.59485626 -114.64027405 -7.28125
v 24.3948555 -115.840271 -7.28125
v 24.3948555 -113.840271 -7.28125
v 25.27485466 -114.72026825 -7.28125
v 27.39485359 -118.840271 -7.28125
v 29.99143982 -119.4368515 -7.28125
v 29.55211449 -120.99752808 -7.28125
v 18.69594574 -121.53917694 -7.28125
v 2.63423109 -93.39239502 10.50749969
v 2.63423109 -93.39239502 -7.28125
v 3.51859117 -97.6638031 -7.28125
v 3.79735518 -87.75276947 10.50749969
v 8.85291862 -101.75563812 -7.28125
v 3.79735518 -87.75276947 -7.28125
v 44.87430954 -87.75276947 -7.28125
v 15.03235531 -101.79652405 -7.28125
v 3.51859117 -97.6638031 10.50749969
v 8.85291862 -101.75563812 10.50749969
v 44.87430954 -87.75276947 10.50749969
v 15.03235531 -101.79652405 10.50749969
v 5.53488588 -100.22363281 -7.28125
v 5.53488588 -100.22363281 10.50749969
v 34.69360352 -102.73277283 -7.28125
v 45.30754852 -92.16576385 -7.28125
v 45.30754852 -92.16576385 10.50749969
v 34.69360352 -102.73277283 10.50749969
v 41.05702209 -100.15892792 -7.28125
v 41.05702209 -100.15892792 10.50749969
v 44.14354324 -96.74878693 -7.28125
v 44.14354324 -96.74878693 10.50749969
v 24.3948555 -113.840271 10.50749969
v 23.59485626 -114.64027405 10.50749969
v 29.99143982 -119.4368515 10.50749969
v 25.27485466 -114.72026825 10.50749969
v 18.38290215 -119.85222626 10.50749969
v 18.38290215 -119.85222626 8.98750401
v 18.38290215 -119.85222626 4.79614496
v 29.99143982 -119.4368515 -5.76125002
v 29.99143982 -119.4368515 3.91191959
v 36.56610489 -139.11901855 -7.28125
v 24.3948555 -151.29026794 -7.28125
v 5.66985512 -132.5652771 -7.28125
v 5.66985512 -132.5652771 20.80624962
v 24.3948555 -113.840271 20.80624962
v 10.07688427 -131.90324402 20.80624962
v 23.45860481 -118.52152252 20.80624962
v 23.67020416 -145.49656677 20.80624962
v 24.3948555 -151.29026794 20.80624962
v 23.18924522 -134.42314148 28.29624939
v 20.66934395 -131.90324402 28.29624939
v 25.73575211 -131.39112854 28.29624939
v 23.45860481 -129.11398315 28.29624939
v 35.88729477 -130.95021057 20.80624962
v 38.43860626 -127.88401794 20.80624962
v 38.43860626 -137.246521 20.80624962
v 47.8011055 -127.88401794 20.80624962
v 38.43860626 -137.246521 -7.28125
v 47.8011055 -137.246521 -7.28125
v 38.43860626 -127.88401794 -7.28125
v 47.8011055 -137.246521 20.80624962
v 47.8011055 -127.88401794 -7.28125
v 24.3948555 -151.29026794 12.38000011
v 36.56610489 -139.11901855 12.38000011
v 36.56610489 -139.11901855 12.37999725
v 28.60798073 -147.07714844 12.38000011
v 36.56610489 -139.11901855 -3.53624749
v 4.54571724 -172.40150452 12.38000011
v 4.54571724 -172.40150452 -7.28125
v 5.17254734 -175.5289917 -7.28125
v 5.31713295 -169.04602051 12.38000011
v 5.31713295 -169.04602051 -7.28125
v 5.17254734 -175.5289917 12.38000011
v 8.49394321 -180.31402588 -7.28125
v 8.49394321 -180.31402588 12.38000011
v 8.44650364 -165.40570068 12.38000011
v 8.44650364 -165.40570068 -7.28125
v 13.35162258 -163.33731079 -7.28125
v 13.35162258 -163.33731079 12.38000011
v 16.77137566 -163.46151733 12.38000011
v 16.77137566 -163.46151733 -7.28125
v 19.71360588 -146.60902405 -7.28125
v 19.71360588 -146.60902405 12.38000011
v 36.56610489 -163.46151733 -7.28125
v 36.56610489 -163.46151733 12.38000011
v 38.87927628 -163.53433228 12.38000011
v 38.87927628 -163.53433228 -7.28125
v 45.02223587 -164.98693848 -7.28125
v 45.02223587 -164.98693848 12.38000011
v 47.54442215 -167.15498352 12.38000011
v 47.54442215 -167.15498352 -7.28125
v 48.62738419 -169.80802917 -7.28125
v 48.62738419 -169.80802917 12.38000011
v 29.2053833 -177.3777771 12.38000011
v 29.50224876 -177.3777771 12.38000011
v 30.49272537 -177.3777771 12.38000011
v 31.32141304 -177.3777771 12.38000011
v 32.42765045 -177.3777771 12.38000011
v 45.18190384 -177.3777771 12.38000011
v 10.56857681 -178.2151947 12.38000011
v 10.82499218 -178.20298767 12.38000011
v 22.80859756 -177.6321106 12.38000011
v 26.76509476 -177.44363403 12.38000011
v 28.14752388 -177.3777771 12.38000011
v 27.88200188 -177.39042664 12.38000011
v 10.35110474 -179.3777771 12.38000011
v 10.35110474 -178.22555542 12.38000011
v 47.90291214 -177.3777771 12.38000011
v 10.35110474 -180.22555542 12.38000011
v 47.90291214 -177.3777771 9.95749664
v 47.90291214 -177.3777771 -7.28125
v 27.88200188 -177.39042664 -7.28125
v 26.76509476 -177.44363403 -7.28125
v 10.82499218 -178.20298767 -7.28125
v 10.56857681 -178.2151947 -7.28125
v 10.35110474 -178.22555542 -7.28125
v 32.42765045 -177.3777771 -7.28125
v 31.32141304 -177.3777771 -7.28125
v 30.49272537 -177.3777771 -7.28125
v 29.50224876 -177.3777771 -7.28125
v 29.2053833 -177.3777771 -7.28125
v 28.14752388 -177.3777771 -7.28125
v 10.35110474 -179.3777771 -7.28125
v 10.35110474 -180.22555542 -7.28125
v 10.35110474 -180.22555542 10.18041229
v 47.8011055 -178.44152832 -7.28125
v 27.7467041 -179.3777771 -7.28125
v 11.25625229 -179.3777771 -7.28125
v 28.14752388 -179.3777771 -7.28125
v 10.35110474 -196.10276794 -7.28125
v 10.35110474 -196.10276794 20.80624962
v 10.35110474 -178.22555542 20.80624962
v 24.3948555 -196.10276794 20.80624962
v 24.3948555 -196.10276794 -7.28125
v 38.43860626 -196.10276794 20.80624962
v 28.14752388 -177.3777771 20.80624962
v 24.3948555 -219.50901794 -7.28125
v 24.3948555 -219.50901794 20.80624962
v 38.43860626 -219.50901794 -7.28125
v 38.43860626 -196.10276794 -7.28125
v 38.43860626 -219.50901794 20.80624962
v 52.48235321 -177.3777771 -7.28125
v 52.48235321 -177.3777771 20.80624962
v 52.48235321 -196.10276794 -7.28125
v 52.48235321 -196.10276794 20.80624962
vn 0 0 -1
vn -0.97923 -0.20274 -0
vn -0.97939 0.20199 0
vn 0 0 1
vn -0.78557 -0.61877 -0
vn 0 1 0
vn -0.41919 -0.9079 -0
vn -0.00662 -0.99998 -0
vn 0.37496 -0.92704 0
vn 0.74141 -0.67105 0
vn 0.96923 -0.24617 0
vn 0.99522 0.0977 -0
vn -0.98321 -0.18245 -0
vn 0.96259 -0.27097 0
vn 0 0 0
vn -0.70711 0.70711 0
vn -0.5 -0.5 0.70711
vn -0.5 0.5 0.70711
vn -0.5 -0.5 0.70711
vn -0.5 0.5 0.70711
vn 0.54147 -0.45477 0.70711
vn 0.54147 -0.45477 0.70711
vn 0.5 0.5 0.70711
vn 0.5 0.5 0.70711
vn 0 -1 0
vn 1 0 0
vn -0.70711 -0.70711 0
vn 0.70711 -0.70711 0
vn 0.70711 -0.70711 0
vn 0.70711 -0.70711 -0
vn 0.70711 -0.70711 0
vn -0.70711 0.70711 -0
vn -0.70711 0.70711 0
vn -0.70711 0.70711 -0
vn 0.70711 0.70711 0
vn 0.70711 0.70711 0
vn 0.70711 0.70711 0
vn 0.70711 0.70711 -0
vn -0.9805 -0.19652 -0
vn -0.97458 0.22405 0
vn -0.82149 -0.57022 -0
vn -0.75832 0.65188 0
vn -0.38855 0.92143 0
vn 0.0363 0.99934 -0
vn -0.9851 0.17199 0
vn 0.03146 0.9995 -0
vn 0.23012 0.97316 0
vn 0.65186 0.75834 -0
vn 0.92584 0.37792 0
vn 0.70711 0.70711 -0
vn 0.99545 -0.09527 0
vn 0.04758 -0.99887 0
vn -1 0 0
vn -0.04758 0.99887 -0
vn -0.04759 0.99887 0
vn -0.04755 0.99887 -6E-05
vn -0.04758 0.99887 0
vn -0.04758 0.99887 0
vn -0.04759 0.99887 1E-05
vn -0.04758 0.99887 -0
f 1//1 2//1 3//1
f 2//1 4//1 5//1
f 6//1 3//1 5//1
f 7//1 8//1 6//1
f 5//1 7//1 6//1
f 5//1 3//1 2//1
f 3//1 9//1 1//1
f 10//2 11//2 12//2
f 11//3 10//3 13//3
f 12//1 11//1 14//1
f 13//3 15//3 11//3
f 11//1 15//1 16//1
f 17//1 14//1 11//1
f 11//1 16//1 17//1
f 12//2 18//2 10//2
f 19//4 10//4 18//4
f 20//4 13//4 10//4
f 10//4 19//4 21//4
f 21//4 20//4 10//4
f 18//5 12//5 22//5
f 14//1 22//1 12//1
f 22//5 23//5 18//5
f 18//4 23//4 19//4
f 16//6 15//6 13//6
f 13//6 20//6 16//6
f 23//7 22//7 14//7
f 14//7 19//7 23//7
f 19//8 14//8 17//8
f 17//8 21//8 19//8
f 24//1 17//1 25//1
f 17//1 16//1 25//1
f 26//4 21//4 27//4
f 26//4 20//4 21//4
f 27//9 24//9 28//9
f 28//1 24//1 25//1
f 28//9 29//9 27//9
f 26//4 27//4 29//4
f 29//10 28//10 30//10
f 25//1 30//1 28//1
f 30//10 31//10 29//10
f 29//4 31//4 26//4
f 31//11 30//11 25//11
f 25//11 26//11 31//11
f 16//12 20//12 26//12
f 26//12 25//12 16//12
f 27//4 21//4 32//4
f 21//4 33//4 32//4
f 34//4 27//4 35//4
f 33//4 21//4 36//4
f 32//4 35//4 27//4
f 21//13 17//13 37//13
f 17//13 1//13 38//13
f 38//13 37//13 17//13
f 37//13 36//13 21//13
f 24//14 27//14 39//14
f 27//14 34//14 40//14
f 40//14 39//14 27//14
f 39//14 7//14 24//14
f 24//1 5//1 4//1
f 4//1 17//1 24//1
f 4//1 2//1 17//1
f 5//1 24//1 7//1
f 1//1 17//1 2//1
f 41//15 42//15 41//15
f 43//16 44//16 45//16
f 44//4 46//4 47//4
f 48//4 46//4 44//4
f 47//4 45//4 44//4
f 44//4 49//4 48//4
f 50//17 51//17 46//17
f 47//18 46//18 51//18
f 46//19 48//19 50//19
f 51//4 50//4 52//4
f 51//20 53//20 47//20
f 52//4 53//4 51//4
f 50//21 48//21 54//21
f 54//22 52//22 50//22
f 54//23 47//23 53//23
f 53//24 52//24 54//24
f 55//4 45//4 47//4
f 47//4 54//4 55//4
f 48//4 49//4 56//4
f 56//4 54//4 48//4
f 57//4 54//4 56//4
f 54//4 57//4 55//4
f 56//25 58//25 59//25
f 59//1 58//1 60//1
f 59//25 61//25 56//25
f 56//4 61//4 57//4
f 60//6 55//6 57//6
f 60//1 62//1 59//1
f 57//6 62//6 60//6
f 61//26 59//26 62//26
f 62//26 57//26 61//26
f 44//27 42//27 63//27
f 44//27 43//27 42//27
f 63//27 49//27 44//27
f 56//28 64//28 65//28
f 65//28 58//28 56//28
f 56//29 49//29 66//29
f 66//30 64//30 56//30
f 66//31 49//31 63//31
f 65//28 67//28 58//28
f 41//28 58//28 67//28
f 58//15 41//15 41//15
f 41//1 43//1 58//1
f 41//1 42//1 43//1
f 43//16 36//16 37//16
f 43//32 45//32 36//32
f 45//33 32//33 33//33
f 33//34 36//34 45//34
f 1//16 43//16 38//16
f 37//16 38//16 43//16
f 60//35 39//35 40//35
f 60//35 7//35 39//35
f 55//36 34//36 35//36
f 55//35 40//35 34//35
f 35//37 32//37 55//37
f 40//35 55//35 60//35
f 32//38 45//38 55//38
f 60//1 58//1 8//1
f 58//1 6//1 8//1
f 9//1 3//1 6//1
f 58//1 43//1 9//1
f 43//1 1//1 9//1
f 6//1 58//1 9//1
f 8//1 7//1 60//1
f 68//39 69//39 70//39
f 69//40 68//40 71//40
f 71//40 72//40 69//40
f 70//39 73//39 68//39
f 73//41 70//41 74//41
f 74//41 75//41 73//41
f 72//42 71//42 76//42
f 76//42 77//42 72//42
f 78//43 77//43 76//43
f 76//43 79//43 78//43
f 78//44 79//44 80//44
f 80//44 81//44 78//44
f 82//45 81//45 80//45
f 80//45 83//45 82//45
f 84//46 85//46 86//46
f 86//46 87//46 84//46
f 88//47 87//47 86//47
f 86//47 89//47 88//47
f 88//48 89//48 90//48
f 90//48 91//48 88//48
f 92//49 91//49 90//49
f 90//49 93//49 92//49
f 85//4 64//4 66//4
f 66//4 63//4 85//4
f 63//4 83//4 80//4
f 82//50 83//50 63//50
f 63//50 42//50 82//50
f 41//1 84//1 42//1
f 81//1 82//1 42//1
f 84//26 41//26 67//26
f 85//26 84//26 65//26
f 65//26 64//26 85//26
f 67//26 65//26 84//26
f 85//4 94//4 95//4
f 86//4 95//4 96//4
f 89//4 96//4 97//4
f 90//4 97//4 98//4
f 93//4 98//4 99//4
f 79//4 100//4 101//4
f 80//4 101//4 102//4
f 63//4 80//4 103//4
f 63//4 104//4 94//4
f 63//4 105//4 104//4
f 100//4 79//4 76//4
f 76//4 106//4 107//4
f 76//4 107//4 100//4
f 71//4 68//4 106//4
f 106//4 76//4 71//4
f 94//4 85//4 63//4
f 103//4 105//4 63//4
f 102//4 103//4 80//4
f 101//4 80//4 79//4
f 99//4 108//4 93//4
f 98//4 93//4 90//4
f 97//4 90//4 89//4
f 96//4 89//4 86//4
f 95//4 86//4 85//4
f 75//4 109//4 106//4
f 106//4 73//4 75//4
f 106//4 68//4 73//4
f 93//51 108//51 110//51
f 111//51 92//51 110//51
f 110//51 92//51 93//51
f 42//1 112//1 113//1
f 78//1 81//1 114//1
f 115//1 116//1 77//1
f 77//1 78//1 115//1
f 91//1 92//1 117//1
f 88//1 91//1 118//1
f 87//1 88//1 119//1
f 84//1 87//1 120//1
f 42//1 84//1 121//1
f 121//1 122//1 42//1
f 122//1 112//1 42//1
f 120//1 121//1 84//1
f 119//1 120//1 87//1
f 118//1 119//1 88//1
f 117//1 118//1 91//1
f 117//1 92//1 111//1
f 116//1 123//1 77//1
f 114//1 115//1 78//1
f 114//1 81//1 113//1
f 113//1 81//1 42//1
f 74//1 70//1 123//1
f 72//1 77//1 123//1
f 123//1 69//1 72//1
f 70//1 69//1 123//1
f 123//1 124//1 74//1
f 74//52 124//52 125//52
f 109//52 75//52 74//52
f 125//52 109//52 74//52
f 117//1 111//1 126//1
f 112//1 122//1 127//1
f 123//1 116//1 128//1
f 128//1 116//1 115//1
f 113//1 112//1 127//1
f 113//1 127//1 128//1
f 128//1 115//1 114//1
f 128//1 114//1 113//1
f 129//1 127//1 122//1
f 122//1 121//1 129//1
f 129//1 121//1 120//1
f 129//1 120//1 119//1
f 129//1 119//1 118//1
f 129//1 118//1 117//1
f 126//1 129//1 117//1
f 130//53 131//53 132//53
f 133//25 131//25 130//25
f 130//25 134//25 133//25
f 132//4 131//4 133//4
f 133//4 135//4 132//4
f 136//4 132//4 135//4
f 137//53 138//53 133//53
f 138//25 137//25 139//25
f 133//53 134//53 137//53
f 137//1 134//1 140//1
f 140//1 139//1 137//1
f 133//4 138//4 141//4
f 139//25 141//25 138//25
f 140//1 134//1 142//1
f 141//4 135//4 133//4
f 143//4 136//4 135//4
f 141//26 139//26 140//26
f 140//26 135//26 141//26
f 135//25 140//25 144//25
f 142//1 144//1 140//1
f 144//25 145//25 135//25
f 135//4 145//4 143//4
f 145//26 144//26 142//26
f 142//26 143//26 145//26
f 136//54 105//54 103//54
f 136//55 104//55 105//55
f 143//6 95//6 94//6
f 143//6 96//6 95//6
f 143//6 97//6 96//6
f 143//6 98//6 97//6
f 143//6 99//6 98//6
f 142//6 111//6 110//6
f 110//6 143//6 142//6
f 110//6 108//6 143//6
f 136//56 101//56 100//56
f 136//57 102//57 101//57
f 107//58 132//58 136//58
f 100//59 107//59 136//59
f 108//6 99//6 143//6
f 94//6 104//6 143//6
f 104//6 136//6 143//6
f 103//60 102//60 136//60
f 130//53 132//53 109//53
f 132//53 107//53 106//53
f 106//53 109//53 132//53
f 109//53 125//53 130//53
f 124//53 130//53 125//53
f 134//1 127//1 129//1
f 129//1 126//1 134//1
f 126//1 142//1 134//1
f 134//1 130//1 124//1
f 124//1 128//1 134//1
f 127//1 134//1 128//1
f 124//1 123//1 128//1
f 126//1 111//1 142//1
# Vertices: 145, normals: 60, texture coordinates: 0, faces: 288

