# File generated by ImageToStl.com - Free Image and 3D model conversion tools

o obj1
v -22.4176445 -404.07775879 20.80624962
v -22.4176445 -404.07775879 -7.28125
v -17.73639488 -422.80276489 -7.28125
v 31.20615578 -388.30606079 20.80624962
v 31.20615578 -388.30606079 -7.28125
v -17.73639488 -422.80276489 20.80624962
v 65.50615692 -401.99212646 -7.28125
v 65.50615692 -401.99212646 20.80624962
v 9.71567726 -312.14703369 20.80624962
v 9.71567726 -312.14703369 -7.28125
v 9.86212063 -318.76721191 -7.28125
v 12.43756771 -306.11050415 20.80624962
v 38.84599686 -311.18878174 -7.28125
v 12.43756771 -306.11050415 -7.28125
v 9.86212063 -318.76721191 20.80624962
v 38.84599686 -311.18878174 20.80624962
v 57.16360474 -380.67150879 -7.28125
v 57.16360474 -380.67150879 20.80624962
v 17.49593163 -301.83721924 20.80624962
v 17.49593163 -301.83721924 -7.28125
v 23.90235519 -300.16210938 20.80624962
v 23.90235519 -300.16210938 -7.28125
v 30.40501404 -301.41256714 20.80624962
v 30.40501404 -301.41256714 -7.28125
v 35.73328018 -305.34420776 20.80624962
v 35.73328018 -305.34420776 -7.28125
vn -0.97014 -0.24254 -0
vn -0.28217 0.95937 0
vn 0 0 -1
vn 0 0 1
vn 0.24254 -0.97014 0
vn -0.99976 -0.02212 -0
vn -0.91161 0.41105 0
vn -0.95598 -0.29343 -0
vn -0.64534 0.7639 0
vn -0.25297 0.96747 0
vn 0.18884 0.98201 -0
vn 0.59374 0.80466 -0
vn 0.88263 0.47007 -0
vn 0.96696 0.25492 -0
vn 0.93125 0.36439 -0
f 1//1 2//1 3//1
f 2//2 1//2 4//2
f 3//3 2//3 5//3
f 4//2 5//2 2//2
f 3//1 6//1 1//1
f 4//4 1//4 6//4
f 6//5 3//5 7//5
f 5//3 7//3 3//3
f 6//4 8//4 4//4
f 7//5 8//5 6//5
f 9//6 10//6 11//6
f 10//7 9//7 12//7
f 13//3 11//3 10//3
f 12//7 14//7 10//7
f 10//3 14//3 13//3
f 11//6 15//6 9//6
f 9//4 15//4 16//4
f 12//4 9//4 16//4
f 15//8 11//8 5//8
f 17//3 5//3 11//3
f 11//3 13//3 17//3
f 5//8 4//8 15//8
f 15//4 4//4 18//4
f 18//4 16//4 15//4
f 14//9 12//9 19//9
f 19//9 20//9 14//9
f 13//3 14//3 20//3
f 19//4 12//4 16//4
f 20//10 19//10 21//10
f 21//10 22//10 20//10
f 20//3 22//3 13//3
f 16//4 21//4 19//4
f 22//11 21//11 23//11
f 23//11 24//11 22//11
f 13//3 22//3 24//3
f 23//4 21//4 16//4
f 24//12 23//12 25//12
f 25//12 26//12 24//12
f 24//3 26//3 13//3
f 16//4 25//4 23//4
f 17//3 7//3 5//3
f 4//4 8//4 18//4
f 26//13 25//13 16//13
f 16//13 13//13 26//13
f 13//14 16//14 18//14
f 18//14 17//14 13//14
f 17//15 18//15 8//15
f 8//15 7//15 17//15
# Vertices: 26, normals: 15, texture coordinates: 0, faces: 48

