# File generated by ImageToStl.com - Free Image and 3D model conversion tools

o obj1
v -124.46889496 -199.9752655 20.80624962
v -124.46889496 -199.9752655 -7.28125
v -120.72389221 -244.91526794 -7.28125
v -113.90963745 -199.09533691 20.80624962
v -110.41461182 -241.03565979 -7.28125
v -113.90963745 -199.09533691 -7.28125
v -113.05723572 -209.32414246 -7.28125
v -112.79167175 -212.51095581 -7.28125
v -110.74944305 -237.01766968 -7.28125
v -120.72389221 -244.91526794 20.80624962
v -110.41461182 -241.03565979 20.80624962
v -113.05723572 -209.32414246 20.80624962
v -112.79167175 -212.51095581 20.80624962
v -110.74944305 -237.01766968 20.80624962
v -110.1646347 -244.03533936 -7.28125
v -110.1646347 -244.03533936 20.80624962
v -105.0770874 -209.32414246 20.80624962
v -105.0770874 -209.32414246 -7.28125
v -104.6218338 -212.51095581 -7.28125
v -104.6218338 -212.51095581 20.80624962
v -101.1208725 -237.01766968 20.80624962
v -101.1208725 -237.01766968 -7.28125
v -100.546875 -241.03565979 -7.28125
v -100.546875 -241.03565979 20.80624962
v -106.68014526 -198.10276794 20.80624962
v -106.68014526 -198.10276794 -7.28125
v -87.95514679 -195.42776489 20.80624962
v -87.95514679 -195.42776489 -7.28125
v -82.79616547 -231.54064941 -7.28125
v -82.79616547 -231.54064941 20.80624962
v -82.12638092 -236.22909546 -7.28125
v -82.12638092 -236.22909546 20.80624962
v -78.59264374 -260.965271 -7.28125
v -78.59264374 -260.965271 20.80624962
v -97.31764221 -263.64025879 -7.28125
v -97.31764221 -263.64025879 20.80624962
v -75.55284119 -231.54064941 20.80624962
v -75.55284119 -231.54064941 -7.28125
v -75.12661743 -236.22909546 -7.28125
v -75.12661743 -236.22909546 20.80624962
v -78.59264374 -198.10276794 20.80624962
v -78.59264374 -198.10276794 -7.28125
v -64.54889679 -193.42152405 20.80624962
v -64.54889679 -193.42152405 -7.28125
v -55.18639374 -249.5965271 -7.28125
v -55.18639374 -249.5965271 20.80624962
v -73.91139221 -249.5965271 -7.28125
v -73.91139221 -249.5965271 20.80624962
vn -0.99655 -0.08305 -0
vn -0.08304 0.99655 0
vn 0 0 -1
vn 0 0 1
vn 0.08304 -0.99655 0
vn 0.99655 0.08305 -0
vn 0 1 0
vn 0.99655 0.08305 -0
vn 0 -1 0
vn 0.99655 0.08305 -0
vn -0.98995 -0.14142 -0
vn -0.14142 0.98995 0
vn -0.98995 -0.14142 -0
vn -0.98995 -0.14142 -0
vn 0.14142 -0.98995 0
vn 0.98995 0.14142 -0
vn 0.98995 0.14142 -0
vn -0.99589 -0.09054 -0
vn -0.31623 0.94868 0
vn -0.99589 -0.09054 -0
vn 0.98639 0.1644 -0
f 1//1 2//1 3//1
f 2//2 1//2 4//2
f 3//3 2//3 5//3
f 4//2 6//2 2//2
f 2//3 6//3 7//3
f 7//3 8//3 2//3
f 2//3 8//3 9//3
f 9//3 5//3 2//3
f 3//1 10//1 1//1
f 11//4 1//4 10//4
f 12//4 4//4 1//4
f 1//4 13//4 12//4
f 14//4 13//4 1//4
f 1//4 11//4 14//4
f 10//5 3//5 15//5
f 5//3 15//3 3//3
f 10//4 16//4 11//4
f 15//5 16//5 10//5
f 6//6 4//6 12//6
f 12//6 7//6 6//6
f 7//7 12//7 17//7
f 8//3 7//3 18//3
f 17//7 18//7 7//7
f 17//4 12//4 13//4
f 8//8 13//8 14//8
f 13//9 8//9 19//9
f 14//8 9//8 8//8
f 18//3 19//3 8//3
f 13//4 20//4 17//4
f 19//9 20//9 13//9
f 9//7 14//7 21//7
f 5//3 9//3 22//3
f 21//7 22//7 9//7
f 21//4 14//4 11//4
f 5//10 11//10 16//10
f 11//9 5//9 23//9
f 16//10 15//10 5//10
f 22//3 23//3 5//3
f 11//4 24//4 21//4
f 23//9 24//9 11//9
f 25//11 26//11 18//11
f 26//12 25//12 27//12
f 18//3 26//3 28//3
f 27//12 28//12 26//12
f 18//11 17//11 25//11
f 27//4 25//4 17//4
f 19//3 18//3 29//3
f 28//3 29//3 18//3
f 30//4 17//4 20//4
f 17//4 30//4 27//4
f 20//13 19//13 22//13
f 22//3 19//3 31//3
f 29//3 31//3 19//3
f 22//13 21//13 20//13
f 32//4 20//4 21//4
f 20//4 32//4 30//4
f 23//3 22//3 33//3
f 31//3 33//3 22//3
f 34//4 21//4 24//4
f 21//4 34//4 32//4
f 24//14 23//14 35//14
f 33//3 35//3 23//3
f 35//14 36//14 24//14
f 24//4 36//4 34//4
f 36//15 35//15 33//15
f 33//15 34//15 36//15
f 28//16 27//16 30//16
f 30//16 29//16 28//16
f 29//7 30//7 37//7
f 31//3 29//3 38//3
f 37//7 38//7 29//7
f 37//4 30//4 32//4
f 31//17 32//17 34//17
f 32//9 31//9 39//9
f 34//17 33//17 31//17
f 38//3 39//3 31//3
f 32//4 40//4 37//4
f 39//9 40//9 32//9
f 41//18 42//18 38//18
f 42//19 41//19 43//19
f 38//3 42//3 44//3
f 43//19 44//19 42//19
f 38//18 37//18 41//18
f 43//4 41//4 37//4
f 39//3 38//3 45//3
f 44//3 45//3 38//3
f 46//4 37//4 40//4
f 37//4 46//4 43//4
f 40//20 39//20 47//20
f 45//3 47//3 39//3
f 47//20 48//20 40//20
f 40//4 48//4 46//4
f 48//9 47//9 45//9
f 45//9 46//9 48//9
f 44//21 43//21 46//21
f 46//21 45//21 44//21
# Vertices: 48, normals: 21, texture coordinates: 0, faces: 96

