# File generated by ImageToStl.com - Free Image and 3D model conversion tools

o obj1
v 29.07610512 129.58473206 20.80624962
v 29.07610512 129.58473206 -7.28125
v 43.11985397 124.90348053 -7.28125
v 49.98921967 209.348526 20.80624962
v 55.77169418 167.91973877 -7.28125
v 49.98921967 209.348526 -7.28125
v 43.11985397 124.90348053 20.80624962
v 55.77169418 167.91973877 20.80624962
v 58.14805222 175.99935913 20.80624962
v 47.8011055 101.49723053 -7.28125
v 47.8011055 101.49723053 20.80624962
v 66.00685883 165.21736145 20.80624962
v 69.48817444 95.30092621 -7.28125
v 66.00685883 165.21736145 -7.28125
v 84.60723114 158.05628967 -7.28125
v 84.60723114 158.05628967 20.80624962
v 69.48817444 95.30092621 20.80624962
v 66.52610779 204.48472595 20.80624962
v 58.14805222 175.99935913 -7.28125
v 66.52610779 204.48472595 -7.28125
v 68.23455811 173.01431274 20.80624962
v 68.23455811 173.01431274 -7.28125
v 75.88860321 199.80348206 20.80624962
v 75.88860321 199.80348206 -7.28125
v 93.45576477 194.7842865 -7.28125
v 93.17842865 152.64910889 -7.28125
v 86.79064178 167.11904907 -7.28125
v 93.45576477 194.7842865 20.80624962
v 86.79064178 167.11904907 20.80624962
v 95.76196289 161.69148254 20.80624962
v 93.17842865 152.64910889 20.80624962
v 85.25110626 124.90348053 -7.28125
v 85.25110626 124.90348053 20.80624962
v 96.82989502 121.59525299 -7.28125
v 96.82989502 121.59525299 20.80624962
v 95.76196289 161.69148254 -7.28125
v 103.97610474 190.440979 20.80624962
v 115.55489349 187.13275146 -7.28125
v 103.97610474 190.440979 -7.28125
v 115.55489349 187.13275146 20.80624962
vn -0.31623 -0.94868 -0
vn -0.96731 0.25362 0
vn 0 0 -1
vn -0 0 1
vn 0.95937 -0.28217 0
vn -0.96152 0.27472 0
vn -0.27472 -0.96152 -0
vn 0.28217 0.95937 -0
vn -0.25528 -0.96687 -0
vn 0.95937 -0.28217 0
vn 0.28378 0.95889 -0
vn -0.96152 0.27472 0
vn 0.97218 -0.23422 0
vn 0.27472 0.96152 -0
vn -0.53356 -0.84577 -0
vn -0.96152 0.27472 0
vn -0.27472 -0.96152 -0
vn 0.97218 -0.23422 0
vn 0.51763 0.8556 -0
vn 0.96152 -0.27472 0
vn 0.27472 0.96152 -0
f 1//1 2//1 3//1
f 2//2 1//2 4//2
f 5//3 3//3 2//3
f 4//2 6//2 2//2
f 2//3 6//3 5//3
f 3//1 7//1 1//1
f 1//4 7//4 8//4
f 4//4 1//4 9//4
f 8//4 9//4 1//4
f 7//5 3//5 5//5
f 5//5 8//5 7//5
f 10//6 11//6 12//6
f 11//7 10//7 13//7
f 12//6 14//6 10//6
f 10//3 14//3 15//3
f 15//3 13//3 10//3
f 16//4 12//4 11//4
f 13//7 17//7 11//7
f 11//4 17//4 16//4
f 6//8 4//8 18//8
f 19//3 5//3 6//3
f 6//3 20//3 19//3
f 18//8 20//8 6//8
f 9//4 18//4 4//4
f 8//9 5//9 14//9
f 14//3 5//3 19//3
f 9//4 8//4 12//4
f 14//9 12//9 8//9
f 9//10 19//10 20//10
f 19//11 9//11 21//11
f 19//3 15//3 14//3
f 21//11 22//11 19//11
f 15//3 19//3 22//3
f 12//4 21//4 9//4
f 20//10 18//10 9//10
f 16//4 21//4 12//4
f 22//12 21//12 23//12
f 23//12 24//12 22//12
f 22//3 24//3 25//3
f 22//3 26//3 15//3
f 26//3 22//3 27//3
f 25//3 27//3 22//3
f 28//4 23//4 21//4
f 29//4 21//4 16//4
f 21//4 29//4 28//4
f 17//13 13//13 15//13
f 15//13 16//13 17//13
f 24//14 23//14 28//14
f 28//14 25//14 24//14
f 16//15 15//15 26//15
f 30//4 29//4 16//4
f 26//15 31//15 16//15
f 16//4 31//4 30//4
f 32//16 33//16 31//16
f 33//17 32//17 34//17
f 31//16 26//16 32//16
f 34//3 32//3 26//3
f 31//4 33//4 35//4
f 34//17 35//17 33//17
f 29//18 27//18 25//18
f 27//19 29//19 30//19
f 27//3 36//3 26//3
f 30//19 36//19 27//19
f 25//18 28//18 29//18
f 26//3 36//3 34//3
f 35//4 30//4 31//4
f 36//16 30//16 37//16
f 38//3 34//3 36//3
f 37//16 39//16 36//16
f 36//3 39//3 38//3
f 30//4 35//4 40//4
f 40//4 37//4 30//4
f 35//20 34//20 38//20
f 38//20 40//20 35//20
f 39//21 37//21 40//21
f 40//21 38//21 39//21
# Vertices: 40, normals: 21, texture coordinates: 0, faces: 76

